<mxfile host="app.diagrams.net" modified="2021-11-23T14:16:26.213Z" agent="5.0 (Windows NT 10.0; Win64; x64) AppleWebKit/537.36 (KHTML, like Gecko) Chrome/96.0.4664.45 Safari/537.36" etag="Swa-0YSVHEYAzlEtD0PK" version="15.8.3" type="github">
  <diagram id="kgpKYQtTHZ0yAKxKKP6v" name="Page-1">
    <mxGraphModel dx="1943" dy="1146" grid="0" gridSize="10" guides="1" tooltips="1" connect="1" arrows="1" fold="1" page="1" pageScale="1" pageWidth="1200" pageHeight="1920" math="0" shadow="0">
      <root>
        <mxCell id="0" />
        <mxCell id="1" parent="0" />
        <mxCell id="l5rnWhb8T00U_MyEtRU--1" value="PLATFORM" style="shape=table;startSize=28;container=1;collapsible=1;childLayout=tableLayout;fixedRows=1;rowLines=0;fontStyle=1;align=center;resizeLast=1;" parent="1" vertex="1">
          <mxGeometry x="15" y="28" width="180" height="130" as="geometry" />
        </mxCell>
        <mxCell id="l5rnWhb8T00U_MyEtRU--2" value="" style="shape=partialRectangle;collapsible=0;dropTarget=0;pointerEvents=0;fillColor=none;top=0;left=0;bottom=1;right=0;points=[[0,0.5],[1,0.5]];portConstraint=eastwest;" parent="l5rnWhb8T00U_MyEtRU--1" vertex="1">
          <mxGeometry y="28" width="180" height="30" as="geometry" />
        </mxCell>
        <mxCell id="l5rnWhb8T00U_MyEtRU--3" value="PK" style="shape=partialRectangle;connectable=0;fillColor=none;top=0;left=0;bottom=0;right=0;fontStyle=1;overflow=hidden;" parent="l5rnWhb8T00U_MyEtRU--2" vertex="1">
          <mxGeometry width="30" height="30" as="geometry">
            <mxRectangle width="30" height="30" as="alternateBounds" />
          </mxGeometry>
        </mxCell>
        <mxCell id="l5rnWhb8T00U_MyEtRU--4" value="PlatformID" style="shape=partialRectangle;connectable=0;fillColor=none;top=0;left=0;bottom=0;right=0;align=left;spacingLeft=6;fontStyle=5;overflow=hidden;" parent="l5rnWhb8T00U_MyEtRU--2" vertex="1">
          <mxGeometry x="30" width="150" height="30" as="geometry">
            <mxRectangle width="150" height="30" as="alternateBounds" />
          </mxGeometry>
        </mxCell>
        <mxCell id="l5rnWhb8T00U_MyEtRU--8" value="" style="shape=partialRectangle;collapsible=0;dropTarget=0;pointerEvents=0;fillColor=none;top=0;left=0;bottom=0;right=0;points=[[0,0.5],[1,0.5]];portConstraint=eastwest;" parent="l5rnWhb8T00U_MyEtRU--1" vertex="1">
          <mxGeometry y="58" width="180" height="30" as="geometry" />
        </mxCell>
        <mxCell id="l5rnWhb8T00U_MyEtRU--9" value="" style="shape=partialRectangle;connectable=0;fillColor=none;top=0;left=0;bottom=0;right=0;editable=1;overflow=hidden;" parent="l5rnWhb8T00U_MyEtRU--8" vertex="1">
          <mxGeometry width="30" height="30" as="geometry">
            <mxRectangle width="30" height="30" as="alternateBounds" />
          </mxGeometry>
        </mxCell>
        <mxCell id="l5rnWhb8T00U_MyEtRU--10" value="PlatformName" style="shape=partialRectangle;connectable=0;fillColor=none;top=0;left=0;bottom=0;right=0;align=left;spacingLeft=6;overflow=hidden;" parent="l5rnWhb8T00U_MyEtRU--8" vertex="1">
          <mxGeometry x="30" width="150" height="30" as="geometry">
            <mxRectangle width="150" height="30" as="alternateBounds" />
          </mxGeometry>
        </mxCell>
        <mxCell id="l5rnWhb8T00U_MyEtRU--11" value="" style="shape=partialRectangle;collapsible=0;dropTarget=0;pointerEvents=0;fillColor=none;top=0;left=0;bottom=0;right=0;points=[[0,0.5],[1,0.5]];portConstraint=eastwest;" parent="l5rnWhb8T00U_MyEtRU--1" vertex="1">
          <mxGeometry y="88" width="180" height="30" as="geometry" />
        </mxCell>
        <mxCell id="l5rnWhb8T00U_MyEtRU--12" value="" style="shape=partialRectangle;connectable=0;fillColor=none;top=0;left=0;bottom=0;right=0;editable=1;overflow=hidden;" parent="l5rnWhb8T00U_MyEtRU--11" vertex="1">
          <mxGeometry width="30" height="30" as="geometry">
            <mxRectangle width="30" height="30" as="alternateBounds" />
          </mxGeometry>
        </mxCell>
        <mxCell id="l5rnWhb8T00U_MyEtRU--13" value="" style="shape=partialRectangle;connectable=0;fillColor=none;top=0;left=0;bottom=0;right=0;align=left;spacingLeft=6;overflow=hidden;" parent="l5rnWhb8T00U_MyEtRU--11" vertex="1">
          <mxGeometry x="30" width="150" height="30" as="geometry">
            <mxRectangle width="150" height="30" as="alternateBounds" />
          </mxGeometry>
        </mxCell>
        <mxCell id="l5rnWhb8T00U_MyEtRU--27" value="PLATFORMGAME" style="shape=table;startSize=30;container=1;collapsible=1;childLayout=tableLayout;fixedRows=1;rowLines=0;fontStyle=1;align=center;resizeLast=1;" parent="1" vertex="1">
          <mxGeometry x="276" y="26" width="180" height="160" as="geometry" />
        </mxCell>
        <mxCell id="l5rnWhb8T00U_MyEtRU--28" value="" style="shape=partialRectangle;collapsible=0;dropTarget=0;pointerEvents=0;fillColor=none;top=0;left=0;bottom=1;right=0;points=[[0,0.5],[1,0.5]];portConstraint=eastwest;" parent="l5rnWhb8T00U_MyEtRU--27" vertex="1">
          <mxGeometry y="30" width="180" height="30" as="geometry" />
        </mxCell>
        <mxCell id="l5rnWhb8T00U_MyEtRU--29" value="PK,FK" style="shape=partialRectangle;connectable=0;fillColor=none;top=0;left=0;bottom=0;right=0;fontStyle=1;overflow=hidden;" parent="l5rnWhb8T00U_MyEtRU--28" vertex="1">
          <mxGeometry width="40.75" height="30" as="geometry">
            <mxRectangle width="40.75" height="30" as="alternateBounds" />
          </mxGeometry>
        </mxCell>
        <mxCell id="l5rnWhb8T00U_MyEtRU--30" value="PlatformID" style="shape=partialRectangle;connectable=0;fillColor=none;top=0;left=0;bottom=0;right=0;align=left;spacingLeft=6;fontStyle=5;overflow=hidden;" parent="l5rnWhb8T00U_MyEtRU--28" vertex="1">
          <mxGeometry x="40.75" width="139.25" height="30" as="geometry">
            <mxRectangle width="139.25" height="30" as="alternateBounds" />
          </mxGeometry>
        </mxCell>
        <mxCell id="l5rnWhb8T00U_MyEtRU--31" value="" style="shape=partialRectangle;collapsible=0;dropTarget=0;pointerEvents=0;fillColor=none;top=0;left=0;bottom=0;right=0;points=[[0,0.5],[1,0.5]];portConstraint=eastwest;verticalAlign=middle;" parent="l5rnWhb8T00U_MyEtRU--27" vertex="1">
          <mxGeometry y="60" width="180" height="30" as="geometry" />
        </mxCell>
        <mxCell id="l5rnWhb8T00U_MyEtRU--32" value="PK,FK" style="shape=partialRectangle;connectable=0;fillColor=none;top=0;left=0;bottom=0;right=0;editable=1;overflow=hidden;fontStyle=1" parent="l5rnWhb8T00U_MyEtRU--31" vertex="1">
          <mxGeometry width="40.75" height="30" as="geometry">
            <mxRectangle width="40.75" height="30" as="alternateBounds" />
          </mxGeometry>
        </mxCell>
        <mxCell id="l5rnWhb8T00U_MyEtRU--33" value="GameID" style="shape=partialRectangle;connectable=0;fillColor=none;top=0;left=0;bottom=0;right=0;align=left;spacingLeft=6;overflow=hidden;verticalAlign=middle;fontStyle=5" parent="l5rnWhb8T00U_MyEtRU--31" vertex="1">
          <mxGeometry x="40.75" width="139.25" height="30" as="geometry">
            <mxRectangle width="139.25" height="30" as="alternateBounds" />
          </mxGeometry>
        </mxCell>
        <mxCell id="l5rnWhb8T00U_MyEtRU--34" value="" style="shape=partialRectangle;collapsible=0;dropTarget=0;pointerEvents=0;fillColor=none;top=0;left=0;bottom=0;right=0;points=[[0,0.5],[1,0.5]];portConstraint=eastwest;" parent="l5rnWhb8T00U_MyEtRU--27" vertex="1">
          <mxGeometry y="90" width="180" height="30" as="geometry" />
        </mxCell>
        <mxCell id="l5rnWhb8T00U_MyEtRU--35" value="" style="shape=partialRectangle;connectable=0;fillColor=none;top=0;left=0;bottom=0;right=0;editable=1;overflow=hidden;" parent="l5rnWhb8T00U_MyEtRU--34" vertex="1">
          <mxGeometry width="40.75" height="30" as="geometry">
            <mxRectangle width="40.75" height="30" as="alternateBounds" />
          </mxGeometry>
        </mxCell>
        <mxCell id="l5rnWhb8T00U_MyEtRU--36" value="" style="shape=partialRectangle;connectable=0;fillColor=none;top=0;left=0;bottom=0;right=0;align=left;spacingLeft=6;overflow=hidden;" parent="l5rnWhb8T00U_MyEtRU--34" vertex="1">
          <mxGeometry x="40.75" width="139.25" height="30" as="geometry">
            <mxRectangle width="139.25" height="30" as="alternateBounds" />
          </mxGeometry>
        </mxCell>
        <mxCell id="l5rnWhb8T00U_MyEtRU--37" value="" style="shape=partialRectangle;collapsible=0;dropTarget=0;pointerEvents=0;fillColor=none;top=0;left=0;bottom=0;right=0;points=[[0,0.5],[1,0.5]];portConstraint=eastwest;" parent="l5rnWhb8T00U_MyEtRU--27" vertex="1">
          <mxGeometry y="120" width="180" height="30" as="geometry" />
        </mxCell>
        <mxCell id="l5rnWhb8T00U_MyEtRU--38" value="" style="shape=partialRectangle;connectable=0;fillColor=none;top=0;left=0;bottom=0;right=0;editable=1;overflow=hidden;" parent="l5rnWhb8T00U_MyEtRU--37" vertex="1">
          <mxGeometry width="40.75" height="30" as="geometry">
            <mxRectangle width="40.75" height="30" as="alternateBounds" />
          </mxGeometry>
        </mxCell>
        <mxCell id="l5rnWhb8T00U_MyEtRU--39" value="" style="shape=partialRectangle;connectable=0;fillColor=none;top=0;left=0;bottom=0;right=0;align=left;spacingLeft=6;overflow=hidden;" parent="l5rnWhb8T00U_MyEtRU--37" vertex="1">
          <mxGeometry x="40.75" width="139.25" height="30" as="geometry">
            <mxRectangle width="139.25" height="30" as="alternateBounds" />
          </mxGeometry>
        </mxCell>
        <mxCell id="YHc2q_IlJQbj_okdTIY7-1" value="" style="edgeStyle=entityRelationEdgeStyle;fontSize=12;html=1;endArrow=ERoneToMany;startArrow=ERmandOne;rounded=0;entryX=0;entryY=0.5;entryDx=0;entryDy=0;" parent="1" source="l5rnWhb8T00U_MyEtRU--11" target="l5rnWhb8T00U_MyEtRU--34" edge="1">
          <mxGeometry width="100" height="100" relative="1" as="geometry">
            <mxPoint x="173" y="220" as="sourcePoint" />
            <mxPoint x="273" y="120" as="targetPoint" />
          </mxGeometry>
        </mxCell>
        <mxCell id="YHc2q_IlJQbj_okdTIY7-2" value="TEAM" style="shape=table;startSize=29;container=1;collapsible=1;childLayout=tableLayout;fixedRows=1;rowLines=0;fontStyle=1;align=center;resizeLast=1;" parent="1" vertex="1">
          <mxGeometry x="498" y="26" width="180" height="160" as="geometry" />
        </mxCell>
        <mxCell id="YHc2q_IlJQbj_okdTIY7-3" value="" style="shape=partialRectangle;collapsible=0;dropTarget=0;pointerEvents=0;fillColor=none;top=0;left=0;bottom=1;right=0;points=[[0,0.5],[1,0.5]];portConstraint=eastwest;" parent="YHc2q_IlJQbj_okdTIY7-2" vertex="1">
          <mxGeometry y="29" width="180" height="30" as="geometry" />
        </mxCell>
        <mxCell id="YHc2q_IlJQbj_okdTIY7-4" value="PK" style="shape=partialRectangle;connectable=0;fillColor=none;top=0;left=0;bottom=0;right=0;fontStyle=1;overflow=hidden;" parent="YHc2q_IlJQbj_okdTIY7-3" vertex="1">
          <mxGeometry width="30" height="30" as="geometry">
            <mxRectangle width="30" height="30" as="alternateBounds" />
          </mxGeometry>
        </mxCell>
        <mxCell id="YHc2q_IlJQbj_okdTIY7-5" value="TeamID" style="shape=partialRectangle;connectable=0;fillColor=none;top=0;left=0;bottom=0;right=0;align=left;spacingLeft=6;fontStyle=5;overflow=hidden;" parent="YHc2q_IlJQbj_okdTIY7-3" vertex="1">
          <mxGeometry x="30" width="150" height="30" as="geometry">
            <mxRectangle width="150" height="30" as="alternateBounds" />
          </mxGeometry>
        </mxCell>
        <mxCell id="YHc2q_IlJQbj_okdTIY7-6" value="" style="shape=partialRectangle;collapsible=0;dropTarget=0;pointerEvents=0;fillColor=none;top=0;left=0;bottom=0;right=0;points=[[0,0.5],[1,0.5]];portConstraint=eastwest;" parent="YHc2q_IlJQbj_okdTIY7-2" vertex="1">
          <mxGeometry y="59" width="180" height="30" as="geometry" />
        </mxCell>
        <mxCell id="YHc2q_IlJQbj_okdTIY7-7" value="" style="shape=partialRectangle;connectable=0;fillColor=none;top=0;left=0;bottom=0;right=0;editable=1;overflow=hidden;" parent="YHc2q_IlJQbj_okdTIY7-6" vertex="1">
          <mxGeometry width="30" height="30" as="geometry">
            <mxRectangle width="30" height="30" as="alternateBounds" />
          </mxGeometry>
        </mxCell>
        <mxCell id="YHc2q_IlJQbj_okdTIY7-8" value="TeamName" style="shape=partialRectangle;connectable=0;fillColor=none;top=0;left=0;bottom=0;right=0;align=left;spacingLeft=6;overflow=hidden;" parent="YHc2q_IlJQbj_okdTIY7-6" vertex="1">
          <mxGeometry x="30" width="150" height="30" as="geometry">
            <mxRectangle width="150" height="30" as="alternateBounds" />
          </mxGeometry>
        </mxCell>
        <mxCell id="YHc2q_IlJQbj_okdTIY7-9" value="" style="shape=partialRectangle;collapsible=0;dropTarget=0;pointerEvents=0;fillColor=none;top=0;left=0;bottom=0;right=0;points=[[0,0.5],[1,0.5]];portConstraint=eastwest;" parent="YHc2q_IlJQbj_okdTIY7-2" vertex="1">
          <mxGeometry y="89" width="180" height="30" as="geometry" />
        </mxCell>
        <mxCell id="YHc2q_IlJQbj_okdTIY7-10" value="" style="shape=partialRectangle;connectable=0;fillColor=none;top=0;left=0;bottom=0;right=0;editable=1;overflow=hidden;" parent="YHc2q_IlJQbj_okdTIY7-9" vertex="1">
          <mxGeometry width="30" height="30" as="geometry">
            <mxRectangle width="30" height="30" as="alternateBounds" />
          </mxGeometry>
        </mxCell>
        <mxCell id="YHc2q_IlJQbj_okdTIY7-11" value="Personnel" style="shape=partialRectangle;connectable=0;fillColor=none;top=0;left=0;bottom=0;right=0;align=left;spacingLeft=6;overflow=hidden;" parent="YHc2q_IlJQbj_okdTIY7-9" vertex="1">
          <mxGeometry x="30" width="150" height="30" as="geometry">
            <mxRectangle width="150" height="30" as="alternateBounds" />
          </mxGeometry>
        </mxCell>
        <mxCell id="YHc2q_IlJQbj_okdTIY7-12" value="" style="shape=partialRectangle;collapsible=0;dropTarget=0;pointerEvents=0;fillColor=none;top=0;left=0;bottom=0;right=0;points=[[0,0.5],[1,0.5]];portConstraint=eastwest;" parent="YHc2q_IlJQbj_okdTIY7-2" vertex="1">
          <mxGeometry y="119" width="180" height="30" as="geometry" />
        </mxCell>
        <mxCell id="YHc2q_IlJQbj_okdTIY7-13" value="" style="shape=partialRectangle;connectable=0;fillColor=none;top=0;left=0;bottom=0;right=0;editable=1;overflow=hidden;" parent="YHc2q_IlJQbj_okdTIY7-12" vertex="1">
          <mxGeometry width="30" height="30" as="geometry">
            <mxRectangle width="30" height="30" as="alternateBounds" />
          </mxGeometry>
        </mxCell>
        <mxCell id="YHc2q_IlJQbj_okdTIY7-14" value="" style="shape=partialRectangle;connectable=0;fillColor=none;top=0;left=0;bottom=0;right=0;align=left;spacingLeft=6;overflow=hidden;" parent="YHc2q_IlJQbj_okdTIY7-12" vertex="1">
          <mxGeometry x="30" width="150" height="30" as="geometry">
            <mxRectangle width="150" height="30" as="alternateBounds" />
          </mxGeometry>
        </mxCell>
        <mxCell id="YHc2q_IlJQbj_okdTIY7-15" value="TEAMGAME" style="shape=table;startSize=33;container=1;collapsible=1;childLayout=tableLayout;fixedRows=1;rowLines=0;fontStyle=1;align=center;resizeLast=1;" parent="1" vertex="1">
          <mxGeometry x="759" y="26" width="180" height="160.75" as="geometry" />
        </mxCell>
        <mxCell id="YHc2q_IlJQbj_okdTIY7-16" value="" style="shape=partialRectangle;collapsible=0;dropTarget=0;pointerEvents=0;fillColor=none;top=0;left=0;bottom=1;right=0;points=[[0,0.5],[1,0.5]];portConstraint=eastwest;" parent="YHc2q_IlJQbj_okdTIY7-15" vertex="1">
          <mxGeometry y="33" width="180" height="30" as="geometry" />
        </mxCell>
        <mxCell id="YHc2q_IlJQbj_okdTIY7-17" value="PK,FK" style="shape=partialRectangle;connectable=0;fillColor=none;top=0;left=0;bottom=0;right=0;fontStyle=1;overflow=hidden;" parent="YHc2q_IlJQbj_okdTIY7-16" vertex="1">
          <mxGeometry width="41.75" height="30" as="geometry">
            <mxRectangle width="41.75" height="30" as="alternateBounds" />
          </mxGeometry>
        </mxCell>
        <mxCell id="YHc2q_IlJQbj_okdTIY7-18" value="TeamID" style="shape=partialRectangle;connectable=0;fillColor=none;top=0;left=0;bottom=0;right=0;align=left;spacingLeft=6;fontStyle=5;overflow=hidden;" parent="YHc2q_IlJQbj_okdTIY7-16" vertex="1">
          <mxGeometry x="41.75" width="138.25" height="30" as="geometry">
            <mxRectangle width="138.25" height="30" as="alternateBounds" />
          </mxGeometry>
        </mxCell>
        <mxCell id="YHc2q_IlJQbj_okdTIY7-19" value="" style="shape=partialRectangle;collapsible=0;dropTarget=0;pointerEvents=0;fillColor=none;top=0;left=0;bottom=0;right=0;points=[[0,0.5],[1,0.5]];portConstraint=eastwest;" parent="YHc2q_IlJQbj_okdTIY7-15" vertex="1">
          <mxGeometry y="63" width="180" height="30" as="geometry" />
        </mxCell>
        <mxCell id="YHc2q_IlJQbj_okdTIY7-20" value="PK,FK" style="shape=partialRectangle;connectable=0;fillColor=none;top=0;left=0;bottom=0;right=0;editable=1;overflow=hidden;fontStyle=1" parent="YHc2q_IlJQbj_okdTIY7-19" vertex="1">
          <mxGeometry width="41.75" height="30" as="geometry">
            <mxRectangle width="41.75" height="30" as="alternateBounds" />
          </mxGeometry>
        </mxCell>
        <mxCell id="YHc2q_IlJQbj_okdTIY7-21" value="GameID" style="shape=partialRectangle;connectable=0;fillColor=none;top=0;left=0;bottom=0;right=0;align=left;spacingLeft=6;overflow=hidden;fontStyle=5" parent="YHc2q_IlJQbj_okdTIY7-19" vertex="1">
          <mxGeometry x="41.75" width="138.25" height="30" as="geometry">
            <mxRectangle width="138.25" height="30" as="alternateBounds" />
          </mxGeometry>
        </mxCell>
        <mxCell id="YHc2q_IlJQbj_okdTIY7-22" value="" style="shape=partialRectangle;collapsible=0;dropTarget=0;pointerEvents=0;fillColor=none;top=0;left=0;bottom=0;right=0;points=[[0,0.5],[1,0.5]];portConstraint=eastwest;" parent="YHc2q_IlJQbj_okdTIY7-15" vertex="1">
          <mxGeometry y="93" width="180" height="31" as="geometry" />
        </mxCell>
        <mxCell id="YHc2q_IlJQbj_okdTIY7-23" value="" style="shape=partialRectangle;connectable=0;fillColor=none;top=0;left=0;bottom=0;right=0;editable=1;overflow=hidden;" parent="YHc2q_IlJQbj_okdTIY7-22" vertex="1">
          <mxGeometry width="41.75" height="31" as="geometry">
            <mxRectangle width="41.75" height="31" as="alternateBounds" />
          </mxGeometry>
        </mxCell>
        <mxCell id="YHc2q_IlJQbj_okdTIY7-24" value="" style="shape=partialRectangle;connectable=0;fillColor=none;top=0;left=0;bottom=0;right=0;align=left;spacingLeft=6;overflow=hidden;" parent="YHc2q_IlJQbj_okdTIY7-22" vertex="1">
          <mxGeometry x="41.75" width="138.25" height="31" as="geometry">
            <mxRectangle width="138.25" height="31" as="alternateBounds" />
          </mxGeometry>
        </mxCell>
        <mxCell id="YHc2q_IlJQbj_okdTIY7-25" value="" style="shape=partialRectangle;collapsible=0;dropTarget=0;pointerEvents=0;fillColor=none;top=0;left=0;bottom=0;right=0;points=[[0,0.5],[1,0.5]];portConstraint=eastwest;" parent="YHc2q_IlJQbj_okdTIY7-15" vertex="1">
          <mxGeometry y="124" width="180" height="30" as="geometry" />
        </mxCell>
        <mxCell id="YHc2q_IlJQbj_okdTIY7-26" value="" style="shape=partialRectangle;connectable=0;fillColor=none;top=0;left=0;bottom=0;right=0;editable=1;overflow=hidden;" parent="YHc2q_IlJQbj_okdTIY7-25" vertex="1">
          <mxGeometry width="41.75" height="30" as="geometry">
            <mxRectangle width="41.75" height="30" as="alternateBounds" />
          </mxGeometry>
        </mxCell>
        <mxCell id="YHc2q_IlJQbj_okdTIY7-27" value="" style="shape=partialRectangle;connectable=0;fillColor=none;top=0;left=0;bottom=0;right=0;align=left;spacingLeft=6;overflow=hidden;" parent="YHc2q_IlJQbj_okdTIY7-25" vertex="1">
          <mxGeometry x="41.75" width="138.25" height="30" as="geometry">
            <mxRectangle width="138.25" height="30" as="alternateBounds" />
          </mxGeometry>
        </mxCell>
        <mxCell id="YHc2q_IlJQbj_okdTIY7-28" value="TYPEGAME" style="shape=table;startSize=30;container=1;collapsible=1;childLayout=tableLayout;fixedRows=1;rowLines=0;fontStyle=1;align=center;resizeLast=1;" parent="1" vertex="1">
          <mxGeometry x="1011" y="23" width="180" height="160" as="geometry" />
        </mxCell>
        <mxCell id="YHc2q_IlJQbj_okdTIY7-29" value="" style="shape=partialRectangle;collapsible=0;dropTarget=0;pointerEvents=0;fillColor=none;top=0;left=0;bottom=1;right=0;points=[[0,0.5],[1,0.5]];portConstraint=eastwest;" parent="YHc2q_IlJQbj_okdTIY7-28" vertex="1">
          <mxGeometry y="30" width="180" height="30" as="geometry" />
        </mxCell>
        <mxCell id="YHc2q_IlJQbj_okdTIY7-30" value="PK FK" style="shape=partialRectangle;connectable=0;fillColor=none;top=0;left=0;bottom=0;right=0;fontStyle=1;overflow=hidden;" parent="YHc2q_IlJQbj_okdTIY7-29" vertex="1">
          <mxGeometry width="51.75" height="30" as="geometry">
            <mxRectangle width="51.75" height="30" as="alternateBounds" />
          </mxGeometry>
        </mxCell>
        <mxCell id="YHc2q_IlJQbj_okdTIY7-31" value="TypeID" style="shape=partialRectangle;connectable=0;fillColor=none;top=0;left=0;bottom=0;right=0;align=left;spacingLeft=6;fontStyle=5;overflow=hidden;" parent="YHc2q_IlJQbj_okdTIY7-29" vertex="1">
          <mxGeometry x="51.75" width="128.25" height="30" as="geometry">
            <mxRectangle width="128.25" height="30" as="alternateBounds" />
          </mxGeometry>
        </mxCell>
        <mxCell id="YHc2q_IlJQbj_okdTIY7-32" value="" style="shape=partialRectangle;collapsible=0;dropTarget=0;pointerEvents=0;fillColor=none;top=0;left=0;bottom=0;right=0;points=[[0,0.5],[1,0.5]];portConstraint=eastwest;" parent="YHc2q_IlJQbj_okdTIY7-28" vertex="1">
          <mxGeometry y="60" width="180" height="30" as="geometry" />
        </mxCell>
        <mxCell id="YHc2q_IlJQbj_okdTIY7-33" value="PK FK" style="shape=partialRectangle;connectable=0;fillColor=none;top=0;left=0;bottom=0;right=0;editable=1;overflow=hidden;fontStyle=1" parent="YHc2q_IlJQbj_okdTIY7-32" vertex="1">
          <mxGeometry width="51.75" height="30" as="geometry">
            <mxRectangle width="51.75" height="30" as="alternateBounds" />
          </mxGeometry>
        </mxCell>
        <mxCell id="YHc2q_IlJQbj_okdTIY7-34" value="GameID" style="shape=partialRectangle;connectable=0;fillColor=none;top=0;left=0;bottom=0;right=0;align=left;spacingLeft=6;overflow=hidden;fontStyle=5" parent="YHc2q_IlJQbj_okdTIY7-32" vertex="1">
          <mxGeometry x="51.75" width="128.25" height="30" as="geometry">
            <mxRectangle width="128.25" height="30" as="alternateBounds" />
          </mxGeometry>
        </mxCell>
        <mxCell id="YHc2q_IlJQbj_okdTIY7-35" value="" style="shape=partialRectangle;collapsible=0;dropTarget=0;pointerEvents=0;fillColor=none;top=0;left=0;bottom=0;right=0;points=[[0,0.5],[1,0.5]];portConstraint=eastwest;" parent="YHc2q_IlJQbj_okdTIY7-28" vertex="1">
          <mxGeometry y="90" width="180" height="30" as="geometry" />
        </mxCell>
        <mxCell id="YHc2q_IlJQbj_okdTIY7-36" value="" style="shape=partialRectangle;connectable=0;fillColor=none;top=0;left=0;bottom=0;right=0;editable=1;overflow=hidden;" parent="YHc2q_IlJQbj_okdTIY7-35" vertex="1">
          <mxGeometry width="51.75" height="30" as="geometry">
            <mxRectangle width="51.75" height="30" as="alternateBounds" />
          </mxGeometry>
        </mxCell>
        <mxCell id="YHc2q_IlJQbj_okdTIY7-37" value="" style="shape=partialRectangle;connectable=0;fillColor=none;top=0;left=0;bottom=0;right=0;align=left;spacingLeft=6;overflow=hidden;" parent="YHc2q_IlJQbj_okdTIY7-35" vertex="1">
          <mxGeometry x="51.75" width="128.25" height="30" as="geometry">
            <mxRectangle width="128.25" height="30" as="alternateBounds" />
          </mxGeometry>
        </mxCell>
        <mxCell id="YHc2q_IlJQbj_okdTIY7-38" value="" style="shape=partialRectangle;collapsible=0;dropTarget=0;pointerEvents=0;fillColor=none;top=0;left=0;bottom=0;right=0;points=[[0,0.5],[1,0.5]];portConstraint=eastwest;" parent="YHc2q_IlJQbj_okdTIY7-28" vertex="1">
          <mxGeometry y="120" width="180" height="30" as="geometry" />
        </mxCell>
        <mxCell id="YHc2q_IlJQbj_okdTIY7-39" value="" style="shape=partialRectangle;connectable=0;fillColor=none;top=0;left=0;bottom=0;right=0;editable=1;overflow=hidden;" parent="YHc2q_IlJQbj_okdTIY7-38" vertex="1">
          <mxGeometry width="51.75" height="30" as="geometry">
            <mxRectangle width="51.75" height="30" as="alternateBounds" />
          </mxGeometry>
        </mxCell>
        <mxCell id="YHc2q_IlJQbj_okdTIY7-40" value="" style="shape=partialRectangle;connectable=0;fillColor=none;top=0;left=0;bottom=0;right=0;align=left;spacingLeft=6;overflow=hidden;" parent="YHc2q_IlJQbj_okdTIY7-38" vertex="1">
          <mxGeometry x="51.75" width="128.25" height="30" as="geometry">
            <mxRectangle width="128.25" height="30" as="alternateBounds" />
          </mxGeometry>
        </mxCell>
        <mxCell id="YHc2q_IlJQbj_okdTIY7-41" value="TYPE" style="shape=table;startSize=30;container=1;collapsible=1;childLayout=tableLayout;fixedRows=1;rowLines=0;fontStyle=1;align=center;resizeLast=1;" parent="1" vertex="1">
          <mxGeometry x="805" y="258" width="181" height="150" as="geometry" />
        </mxCell>
        <mxCell id="YHc2q_IlJQbj_okdTIY7-42" value="" style="shape=partialRectangle;collapsible=0;dropTarget=0;pointerEvents=0;fillColor=none;top=0;left=0;bottom=1;right=0;points=[[0,0.5],[1,0.5]];portConstraint=eastwest;" parent="YHc2q_IlJQbj_okdTIY7-41" vertex="1">
          <mxGeometry y="30" width="181" height="30" as="geometry" />
        </mxCell>
        <mxCell id="YHc2q_IlJQbj_okdTIY7-43" value="PK" style="shape=partialRectangle;connectable=0;fillColor=none;top=0;left=0;bottom=0;right=0;fontStyle=1;overflow=hidden;" parent="YHc2q_IlJQbj_okdTIY7-42" vertex="1">
          <mxGeometry width="30" height="30" as="geometry">
            <mxRectangle width="30" height="30" as="alternateBounds" />
          </mxGeometry>
        </mxCell>
        <mxCell id="YHc2q_IlJQbj_okdTIY7-44" value="TypeID" style="shape=partialRectangle;connectable=0;fillColor=none;top=0;left=0;bottom=0;right=0;align=left;spacingLeft=6;fontStyle=5;overflow=hidden;" parent="YHc2q_IlJQbj_okdTIY7-42" vertex="1">
          <mxGeometry x="30" width="151" height="30" as="geometry">
            <mxRectangle width="151" height="30" as="alternateBounds" />
          </mxGeometry>
        </mxCell>
        <mxCell id="YHc2q_IlJQbj_okdTIY7-45" value="" style="shape=partialRectangle;collapsible=0;dropTarget=0;pointerEvents=0;fillColor=none;top=0;left=0;bottom=0;right=0;points=[[0,0.5],[1,0.5]];portConstraint=eastwest;" parent="YHc2q_IlJQbj_okdTIY7-41" vertex="1">
          <mxGeometry y="60" width="181" height="30" as="geometry" />
        </mxCell>
        <mxCell id="YHc2q_IlJQbj_okdTIY7-46" value="" style="shape=partialRectangle;connectable=0;fillColor=none;top=0;left=0;bottom=0;right=0;editable=1;overflow=hidden;" parent="YHc2q_IlJQbj_okdTIY7-45" vertex="1">
          <mxGeometry width="30" height="30" as="geometry">
            <mxRectangle width="30" height="30" as="alternateBounds" />
          </mxGeometry>
        </mxCell>
        <mxCell id="YHc2q_IlJQbj_okdTIY7-47" value="TypeName" style="shape=partialRectangle;connectable=0;fillColor=none;top=0;left=0;bottom=0;right=0;align=left;spacingLeft=6;overflow=hidden;" parent="YHc2q_IlJQbj_okdTIY7-45" vertex="1">
          <mxGeometry x="30" width="151" height="30" as="geometry">
            <mxRectangle width="151" height="30" as="alternateBounds" />
          </mxGeometry>
        </mxCell>
        <mxCell id="YHc2q_IlJQbj_okdTIY7-48" value="" style="shape=partialRectangle;collapsible=0;dropTarget=0;pointerEvents=0;fillColor=none;top=0;left=0;bottom=0;right=0;points=[[0,0.5],[1,0.5]];portConstraint=eastwest;" parent="YHc2q_IlJQbj_okdTIY7-41" vertex="1">
          <mxGeometry y="90" width="181" height="30" as="geometry" />
        </mxCell>
        <mxCell id="YHc2q_IlJQbj_okdTIY7-49" value="" style="shape=partialRectangle;connectable=0;fillColor=none;top=0;left=0;bottom=0;right=0;editable=1;overflow=hidden;" parent="YHc2q_IlJQbj_okdTIY7-48" vertex="1">
          <mxGeometry width="30" height="30" as="geometry">
            <mxRectangle width="30" height="30" as="alternateBounds" />
          </mxGeometry>
        </mxCell>
        <mxCell id="YHc2q_IlJQbj_okdTIY7-50" value="" style="shape=partialRectangle;connectable=0;fillColor=none;top=0;left=0;bottom=0;right=0;align=left;spacingLeft=6;overflow=hidden;" parent="YHc2q_IlJQbj_okdTIY7-48" vertex="1">
          <mxGeometry x="30" width="151" height="30" as="geometry">
            <mxRectangle width="151" height="30" as="alternateBounds" />
          </mxGeometry>
        </mxCell>
        <mxCell id="YHc2q_IlJQbj_okdTIY7-51" value="" style="shape=partialRectangle;collapsible=0;dropTarget=0;pointerEvents=0;fillColor=none;top=0;left=0;bottom=0;right=0;points=[[0,0.5],[1,0.5]];portConstraint=eastwest;" parent="YHc2q_IlJQbj_okdTIY7-41" vertex="1">
          <mxGeometry y="120" width="181" height="30" as="geometry" />
        </mxCell>
        <mxCell id="YHc2q_IlJQbj_okdTIY7-52" value="" style="shape=partialRectangle;connectable=0;fillColor=none;top=0;left=0;bottom=0;right=0;editable=1;overflow=hidden;" parent="YHc2q_IlJQbj_okdTIY7-51" vertex="1">
          <mxGeometry width="30" height="30" as="geometry">
            <mxRectangle width="30" height="30" as="alternateBounds" />
          </mxGeometry>
        </mxCell>
        <mxCell id="YHc2q_IlJQbj_okdTIY7-53" value="" style="shape=partialRectangle;connectable=0;fillColor=none;top=0;left=0;bottom=0;right=0;align=left;spacingLeft=6;overflow=hidden;" parent="YHc2q_IlJQbj_okdTIY7-51" vertex="1">
          <mxGeometry x="30" width="151" height="30" as="geometry">
            <mxRectangle width="151" height="30" as="alternateBounds" />
          </mxGeometry>
        </mxCell>
        <mxCell id="YHc2q_IlJQbj_okdTIY7-54" value="GAME" style="shape=table;startSize=30;container=1;collapsible=1;childLayout=tableLayout;fixedRows=1;rowLines=0;fontStyle=1;align=center;resizeLast=1;" parent="1" vertex="1">
          <mxGeometry x="408" y="434" width="192" height="296" as="geometry" />
        </mxCell>
        <mxCell id="YHc2q_IlJQbj_okdTIY7-55" value="" style="shape=partialRectangle;collapsible=0;dropTarget=0;pointerEvents=0;fillColor=none;top=0;left=0;bottom=1;right=0;points=[[0,0.5],[1,0.5]];portConstraint=eastwest;" parent="YHc2q_IlJQbj_okdTIY7-54" vertex="1">
          <mxGeometry y="30" width="192" height="36" as="geometry" />
        </mxCell>
        <mxCell id="YHc2q_IlJQbj_okdTIY7-56" value="PK" style="shape=partialRectangle;connectable=0;fillColor=none;top=0;left=0;bottom=0;right=0;fontStyle=1;overflow=hidden;" parent="YHc2q_IlJQbj_okdTIY7-55" vertex="1">
          <mxGeometry width="30" height="36" as="geometry">
            <mxRectangle width="30" height="36" as="alternateBounds" />
          </mxGeometry>
        </mxCell>
        <mxCell id="YHc2q_IlJQbj_okdTIY7-57" value="GameID" style="shape=partialRectangle;connectable=0;fillColor=none;top=0;left=0;bottom=0;right=0;align=left;spacingLeft=6;fontStyle=5;overflow=hidden;" parent="YHc2q_IlJQbj_okdTIY7-55" vertex="1">
          <mxGeometry x="30" width="162" height="36" as="geometry">
            <mxRectangle width="162" height="36" as="alternateBounds" />
          </mxGeometry>
        </mxCell>
        <mxCell id="YHc2q_IlJQbj_okdTIY7-58" value="" style="shape=partialRectangle;collapsible=0;dropTarget=0;pointerEvents=0;fillColor=none;top=0;left=0;bottom=0;right=0;points=[[0,0.5],[1,0.5]];portConstraint=eastwest;" parent="YHc2q_IlJQbj_okdTIY7-54" vertex="1">
          <mxGeometry y="66" width="192" height="27" as="geometry" />
        </mxCell>
        <mxCell id="YHc2q_IlJQbj_okdTIY7-59" value="FK" style="shape=partialRectangle;connectable=0;fillColor=none;top=0;left=0;bottom=0;right=0;editable=1;overflow=hidden;fontStyle=1" parent="YHc2q_IlJQbj_okdTIY7-58" vertex="1">
          <mxGeometry width="30" height="27" as="geometry">
            <mxRectangle width="30" height="27" as="alternateBounds" />
          </mxGeometry>
        </mxCell>
        <mxCell id="YHc2q_IlJQbj_okdTIY7-60" value="PublishID" style="shape=partialRectangle;connectable=0;fillColor=none;top=0;left=0;bottom=0;right=0;align=left;spacingLeft=6;overflow=hidden;fontStyle=1" parent="YHc2q_IlJQbj_okdTIY7-58" vertex="1">
          <mxGeometry x="30" width="162" height="27" as="geometry">
            <mxRectangle width="162" height="27" as="alternateBounds" />
          </mxGeometry>
        </mxCell>
        <mxCell id="YHc2q_IlJQbj_okdTIY7-61" value="" style="shape=partialRectangle;collapsible=0;dropTarget=0;pointerEvents=0;fillColor=none;top=0;left=0;bottom=0;right=0;points=[[0,0.5],[1,0.5]];portConstraint=eastwest;" parent="YHc2q_IlJQbj_okdTIY7-54" vertex="1">
          <mxGeometry y="93" width="192" height="30" as="geometry" />
        </mxCell>
        <mxCell id="YHc2q_IlJQbj_okdTIY7-62" value="FK" style="shape=partialRectangle;connectable=0;fillColor=none;top=0;left=0;bottom=0;right=0;editable=1;overflow=hidden;fontStyle=1" parent="YHc2q_IlJQbj_okdTIY7-61" vertex="1">
          <mxGeometry width="30" height="30" as="geometry">
            <mxRectangle width="30" height="30" as="alternateBounds" />
          </mxGeometry>
        </mxCell>
        <mxCell id="YHc2q_IlJQbj_okdTIY7-63" value="UserID" style="shape=partialRectangle;connectable=0;fillColor=none;top=0;left=0;bottom=0;right=0;align=left;spacingLeft=6;overflow=hidden;fontStyle=1" parent="YHc2q_IlJQbj_okdTIY7-61" vertex="1">
          <mxGeometry x="30" width="162" height="30" as="geometry">
            <mxRectangle width="162" height="30" as="alternateBounds" />
          </mxGeometry>
        </mxCell>
        <mxCell id="YHc2q_IlJQbj_okdTIY7-64" value="" style="shape=partialRectangle;collapsible=0;dropTarget=0;pointerEvents=0;fillColor=none;top=0;left=0;bottom=0;right=0;points=[[0,0.5],[1,0.5]];portConstraint=eastwest;" parent="YHc2q_IlJQbj_okdTIY7-54" vertex="1">
          <mxGeometry y="123" width="192" height="30" as="geometry" />
        </mxCell>
        <mxCell id="YHc2q_IlJQbj_okdTIY7-65" value="FK" style="shape=partialRectangle;connectable=0;fillColor=none;top=0;left=0;bottom=0;right=0;editable=1;overflow=hidden;fontStyle=1" parent="YHc2q_IlJQbj_okdTIY7-64" vertex="1">
          <mxGeometry width="30" height="30" as="geometry">
            <mxRectangle width="30" height="30" as="alternateBounds" />
          </mxGeometry>
        </mxCell>
        <mxCell id="YHc2q_IlJQbj_okdTIY7-66" value="LaunchID" style="shape=partialRectangle;connectable=0;fillColor=none;top=0;left=0;bottom=0;right=0;align=left;spacingLeft=6;overflow=hidden;fontStyle=1" parent="YHc2q_IlJQbj_okdTIY7-64" vertex="1">
          <mxGeometry x="30" width="162" height="30" as="geometry">
            <mxRectangle width="162" height="30" as="alternateBounds" />
          </mxGeometry>
        </mxCell>
        <mxCell id="YHc2q_IlJQbj_okdTIY7-70" value="GameName" style="shape=partialRectangle;connectable=0;fillColor=none;top=0;left=0;bottom=0;right=0;align=left;spacingLeft=6;overflow=hidden;" parent="1" vertex="1">
          <mxGeometry x="447" y="586" width="153" height="27" as="geometry">
            <mxRectangle width="153" height="27" as="alternateBounds" />
          </mxGeometry>
        </mxCell>
        <mxCell id="YHc2q_IlJQbj_okdTIY7-72" value="" style="edgeStyle=entityRelationEdgeStyle;fontSize=12;html=1;endArrow=ERzeroToMany;startArrow=ERmandOne;rounded=0;entryX=0;entryY=0.065;entryDx=0;entryDy=0;entryPerimeter=0;" parent="1" target="YHc2q_IlJQbj_okdTIY7-22" edge="1">
          <mxGeometry width="100" height="100" relative="1" as="geometry">
            <mxPoint x="677" y="142" as="sourcePoint" />
            <mxPoint x="756" y="120" as="targetPoint" />
          </mxGeometry>
        </mxCell>
        <mxCell id="YHc2q_IlJQbj_okdTIY7-73" value="" style="edgeStyle=entityRelationEdgeStyle;fontSize=12;html=1;endArrow=ERoneToMany;startArrow=ERmandOne;rounded=0;entryX=-0.006;entryY=1.033;entryDx=0;entryDy=0;entryPerimeter=0;" parent="1" source="YHc2q_IlJQbj_okdTIY7-55" target="YHc2q_IlJQbj_okdTIY7-25" edge="1">
          <mxGeometry width="100" height="100" relative="1" as="geometry">
            <mxPoint x="767" y="404" as="sourcePoint" />
            <mxPoint x="861" y="240" as="targetPoint" />
          </mxGeometry>
        </mxCell>
        <mxCell id="YHc2q_IlJQbj_okdTIY7-77" value="" style="edgeStyle=entityRelationEdgeStyle;fontSize=12;html=1;endArrow=ERoneToMany;startArrow=ERmandOne;rounded=0;exitX=0.5;exitY=0;exitDx=0;exitDy=0;" parent="1" source="YHc2q_IlJQbj_okdTIY7-54" edge="1">
          <mxGeometry width="100" height="100" relative="1" as="geometry">
            <mxPoint x="500" y="423" as="sourcePoint" />
            <mxPoint x="274" y="182" as="targetPoint" />
          </mxGeometry>
        </mxCell>
        <mxCell id="YHc2q_IlJQbj_okdTIY7-78" value="PUBLISHER" style="shape=table;startSize=30;container=1;collapsible=1;childLayout=tableLayout;fixedRows=1;rowLines=0;fontStyle=1;align=center;resizeLast=1;" parent="1" vertex="1">
          <mxGeometry x="34" y="352" width="180" height="160" as="geometry" />
        </mxCell>
        <mxCell id="YHc2q_IlJQbj_okdTIY7-79" value="" style="shape=partialRectangle;collapsible=0;dropTarget=0;pointerEvents=0;fillColor=none;top=0;left=0;bottom=1;right=0;points=[[0,0.5],[1,0.5]];portConstraint=eastwest;" parent="YHc2q_IlJQbj_okdTIY7-78" vertex="1">
          <mxGeometry y="30" width="180" height="30" as="geometry" />
        </mxCell>
        <mxCell id="YHc2q_IlJQbj_okdTIY7-80" value="PK" style="shape=partialRectangle;connectable=0;fillColor=none;top=0;left=0;bottom=0;right=0;fontStyle=1;overflow=hidden;" parent="YHc2q_IlJQbj_okdTIY7-79" vertex="1">
          <mxGeometry width="30" height="30" as="geometry">
            <mxRectangle width="30" height="30" as="alternateBounds" />
          </mxGeometry>
        </mxCell>
        <mxCell id="YHc2q_IlJQbj_okdTIY7-81" value="PublishID" style="shape=partialRectangle;connectable=0;fillColor=none;top=0;left=0;bottom=0;right=0;align=left;spacingLeft=6;fontStyle=5;overflow=hidden;" parent="YHc2q_IlJQbj_okdTIY7-79" vertex="1">
          <mxGeometry x="30" width="150" height="30" as="geometry">
            <mxRectangle width="150" height="30" as="alternateBounds" />
          </mxGeometry>
        </mxCell>
        <mxCell id="YHc2q_IlJQbj_okdTIY7-82" value="" style="shape=partialRectangle;collapsible=0;dropTarget=0;pointerEvents=0;fillColor=none;top=0;left=0;bottom=0;right=0;points=[[0,0.5],[1,0.5]];portConstraint=eastwest;" parent="YHc2q_IlJQbj_okdTIY7-78" vertex="1">
          <mxGeometry y="60" width="180" height="30" as="geometry" />
        </mxCell>
        <mxCell id="YHc2q_IlJQbj_okdTIY7-83" value="" style="shape=partialRectangle;connectable=0;fillColor=none;top=0;left=0;bottom=0;right=0;editable=1;overflow=hidden;" parent="YHc2q_IlJQbj_okdTIY7-82" vertex="1">
          <mxGeometry width="30" height="30" as="geometry">
            <mxRectangle width="30" height="30" as="alternateBounds" />
          </mxGeometry>
        </mxCell>
        <mxCell id="YHc2q_IlJQbj_okdTIY7-84" value="PublishName" style="shape=partialRectangle;connectable=0;fillColor=none;top=0;left=0;bottom=0;right=0;align=left;spacingLeft=6;overflow=hidden;" parent="YHc2q_IlJQbj_okdTIY7-82" vertex="1">
          <mxGeometry x="30" width="150" height="30" as="geometry">
            <mxRectangle width="150" height="30" as="alternateBounds" />
          </mxGeometry>
        </mxCell>
        <mxCell id="YHc2q_IlJQbj_okdTIY7-85" value="" style="shape=partialRectangle;collapsible=0;dropTarget=0;pointerEvents=0;fillColor=none;top=0;left=0;bottom=0;right=0;points=[[0,0.5],[1,0.5]];portConstraint=eastwest;" parent="YHc2q_IlJQbj_okdTIY7-78" vertex="1">
          <mxGeometry y="90" width="180" height="30" as="geometry" />
        </mxCell>
        <mxCell id="YHc2q_IlJQbj_okdTIY7-86" value="" style="shape=partialRectangle;connectable=0;fillColor=none;top=0;left=0;bottom=0;right=0;editable=1;overflow=hidden;" parent="YHc2q_IlJQbj_okdTIY7-85" vertex="1">
          <mxGeometry width="30" height="30" as="geometry">
            <mxRectangle width="30" height="30" as="alternateBounds" />
          </mxGeometry>
        </mxCell>
        <mxCell id="YHc2q_IlJQbj_okdTIY7-87" value="PDate" style="shape=partialRectangle;connectable=0;fillColor=none;top=0;left=0;bottom=0;right=0;align=left;spacingLeft=6;overflow=hidden;" parent="YHc2q_IlJQbj_okdTIY7-85" vertex="1">
          <mxGeometry x="30" width="150" height="30" as="geometry">
            <mxRectangle width="150" height="30" as="alternateBounds" />
          </mxGeometry>
        </mxCell>
        <mxCell id="YHc2q_IlJQbj_okdTIY7-88" value="" style="shape=partialRectangle;collapsible=0;dropTarget=0;pointerEvents=0;fillColor=none;top=0;left=0;bottom=0;right=0;points=[[0,0.5],[1,0.5]];portConstraint=eastwest;" parent="YHc2q_IlJQbj_okdTIY7-78" vertex="1">
          <mxGeometry y="120" width="180" height="30" as="geometry" />
        </mxCell>
        <mxCell id="YHc2q_IlJQbj_okdTIY7-89" value="" style="shape=partialRectangle;connectable=0;fillColor=none;top=0;left=0;bottom=0;right=0;editable=1;overflow=hidden;" parent="YHc2q_IlJQbj_okdTIY7-88" vertex="1">
          <mxGeometry width="30" height="30" as="geometry">
            <mxRectangle width="30" height="30" as="alternateBounds" />
          </mxGeometry>
        </mxCell>
        <mxCell id="YHc2q_IlJQbj_okdTIY7-90" value="Row 3" style="shape=partialRectangle;connectable=0;fillColor=none;top=0;left=0;bottom=0;right=0;align=left;spacingLeft=6;overflow=hidden;" parent="YHc2q_IlJQbj_okdTIY7-88" vertex="1">
          <mxGeometry x="30" width="150" height="30" as="geometry">
            <mxRectangle width="150" height="30" as="alternateBounds" />
          </mxGeometry>
        </mxCell>
        <mxCell id="YHc2q_IlJQbj_okdTIY7-91" value="COMPANYGAME" style="shape=table;startSize=30;container=1;collapsible=1;childLayout=tableLayout;fixedRows=1;rowLines=0;fontStyle=1;align=center;resizeLast=1;" parent="1" vertex="1">
          <mxGeometry x="37" y="576" width="195" height="170" as="geometry" />
        </mxCell>
        <mxCell id="YHc2q_IlJQbj_okdTIY7-92" value="" style="shape=partialRectangle;collapsible=0;dropTarget=0;pointerEvents=0;fillColor=none;top=0;left=0;bottom=1;right=0;points=[[0,0.5],[1,0.5]];portConstraint=eastwest;" parent="YHc2q_IlJQbj_okdTIY7-91" vertex="1">
          <mxGeometry y="30" width="195" height="60" as="geometry" />
        </mxCell>
        <mxCell id="YHc2q_IlJQbj_okdTIY7-93" value="PK,FK" style="shape=partialRectangle;connectable=0;fillColor=none;top=0;left=0;bottom=0;right=0;fontStyle=1;overflow=hidden;verticalAlign=top;" parent="YHc2q_IlJQbj_okdTIY7-92" vertex="1">
          <mxGeometry width="40.06896551724155" height="60" as="geometry">
            <mxRectangle width="40.06896551724155" height="60" as="alternateBounds" />
          </mxGeometry>
        </mxCell>
        <mxCell id="YHc2q_IlJQbj_okdTIY7-94" value="GameID" style="shape=partialRectangle;connectable=0;fillColor=none;top=0;left=0;bottom=0;right=0;align=left;spacingLeft=6;fontStyle=5;overflow=hidden;verticalAlign=top;" parent="YHc2q_IlJQbj_okdTIY7-92" vertex="1">
          <mxGeometry x="40.06896551724155" width="154.93103448275843" height="60" as="geometry">
            <mxRectangle width="154.93103448275843" height="60" as="alternateBounds" />
          </mxGeometry>
        </mxCell>
        <mxCell id="YHc2q_IlJQbj_okdTIY7-95" value="" style="shape=partialRectangle;collapsible=0;dropTarget=0;pointerEvents=0;fillColor=none;top=0;left=0;bottom=0;right=0;points=[[0,0.5],[1,0.5]];portConstraint=eastwest;" parent="YHc2q_IlJQbj_okdTIY7-91" vertex="1">
          <mxGeometry y="90" width="195" height="30" as="geometry" />
        </mxCell>
        <mxCell id="YHc2q_IlJQbj_okdTIY7-96" value="" style="shape=partialRectangle;connectable=0;fillColor=none;top=0;left=0;bottom=0;right=0;editable=1;overflow=hidden;fontStyle=1" parent="YHc2q_IlJQbj_okdTIY7-95" vertex="1">
          <mxGeometry width="40.06896551724155" height="30" as="geometry">
            <mxRectangle width="40.06896551724155" height="30" as="alternateBounds" />
          </mxGeometry>
        </mxCell>
        <mxCell id="YHc2q_IlJQbj_okdTIY7-97" value="" style="shape=partialRectangle;connectable=0;fillColor=none;top=0;left=0;bottom=0;right=0;align=left;spacingLeft=6;overflow=hidden;" parent="YHc2q_IlJQbj_okdTIY7-95" vertex="1">
          <mxGeometry x="40.06896551724155" width="154.93103448275843" height="30" as="geometry">
            <mxRectangle width="154.93103448275843" height="30" as="alternateBounds" />
          </mxGeometry>
        </mxCell>
        <mxCell id="YHc2q_IlJQbj_okdTIY7-98" value="" style="shape=partialRectangle;collapsible=0;dropTarget=0;pointerEvents=0;fillColor=none;top=0;left=0;bottom=0;right=0;points=[[0,0.5],[1,0.5]];portConstraint=eastwest;" parent="YHc2q_IlJQbj_okdTIY7-91" vertex="1">
          <mxGeometry y="120" width="195" height="20" as="geometry" />
        </mxCell>
        <mxCell id="YHc2q_IlJQbj_okdTIY7-99" value="" style="shape=partialRectangle;connectable=0;fillColor=none;top=0;left=0;bottom=0;right=0;editable=1;overflow=hidden;" parent="YHc2q_IlJQbj_okdTIY7-98" vertex="1">
          <mxGeometry width="40.06896551724155" height="20" as="geometry">
            <mxRectangle width="40.06896551724155" height="20" as="alternateBounds" />
          </mxGeometry>
        </mxCell>
        <mxCell id="YHc2q_IlJQbj_okdTIY7-100" value="" style="shape=partialRectangle;connectable=0;fillColor=none;top=0;left=0;bottom=0;right=0;align=left;spacingLeft=6;overflow=hidden;" parent="YHc2q_IlJQbj_okdTIY7-98" vertex="1">
          <mxGeometry x="40.06896551724155" width="154.93103448275843" height="20" as="geometry">
            <mxRectangle width="154.93103448275843" height="20" as="alternateBounds" />
          </mxGeometry>
        </mxCell>
        <mxCell id="YHc2q_IlJQbj_okdTIY7-101" value="" style="shape=partialRectangle;collapsible=0;dropTarget=0;pointerEvents=0;fillColor=none;top=0;left=0;bottom=0;right=0;points=[[0,0.5],[1,0.5]];portConstraint=eastwest;" parent="YHc2q_IlJQbj_okdTIY7-91" vertex="1">
          <mxGeometry y="140" width="195" height="30" as="geometry" />
        </mxCell>
        <mxCell id="YHc2q_IlJQbj_okdTIY7-102" value="" style="shape=partialRectangle;connectable=0;fillColor=none;top=0;left=0;bottom=0;right=0;editable=1;overflow=hidden;" parent="YHc2q_IlJQbj_okdTIY7-101" vertex="1">
          <mxGeometry width="40.06896551724155" height="30" as="geometry">
            <mxRectangle width="40.06896551724155" height="30" as="alternateBounds" />
          </mxGeometry>
        </mxCell>
        <mxCell id="YHc2q_IlJQbj_okdTIY7-103" value="" style="shape=partialRectangle;connectable=0;fillColor=none;top=0;left=0;bottom=0;right=0;align=left;spacingLeft=6;overflow=hidden;" parent="YHc2q_IlJQbj_okdTIY7-101" vertex="1">
          <mxGeometry x="40.06896551724155" width="154.93103448275843" height="30" as="geometry">
            <mxRectangle width="154.93103448275843" height="30" as="alternateBounds" />
          </mxGeometry>
        </mxCell>
        <mxCell id="YHc2q_IlJQbj_okdTIY7-104" value="COMPANY" style="shape=table;startSize=30;container=1;collapsible=1;childLayout=tableLayout;fixedRows=1;rowLines=0;fontStyle=1;align=center;resizeLast=1;" parent="1" vertex="1">
          <mxGeometry x="51" y="914" width="180" height="160" as="geometry" />
        </mxCell>
        <mxCell id="YHc2q_IlJQbj_okdTIY7-105" value="" style="shape=partialRectangle;collapsible=0;dropTarget=0;pointerEvents=0;fillColor=none;top=0;left=0;bottom=1;right=0;points=[[0,0.5],[1,0.5]];portConstraint=eastwest;" parent="YHc2q_IlJQbj_okdTIY7-104" vertex="1">
          <mxGeometry y="30" width="180" height="30" as="geometry" />
        </mxCell>
        <mxCell id="YHc2q_IlJQbj_okdTIY7-106" value="PK" style="shape=partialRectangle;connectable=0;fillColor=none;top=0;left=0;bottom=0;right=0;fontStyle=1;overflow=hidden;" parent="YHc2q_IlJQbj_okdTIY7-105" vertex="1">
          <mxGeometry width="30" height="30" as="geometry">
            <mxRectangle width="30" height="30" as="alternateBounds" />
          </mxGeometry>
        </mxCell>
        <mxCell id="YHc2q_IlJQbj_okdTIY7-107" value="CompanyID" style="shape=partialRectangle;connectable=0;fillColor=none;top=0;left=0;bottom=0;right=0;align=left;spacingLeft=6;fontStyle=5;overflow=hidden;" parent="YHc2q_IlJQbj_okdTIY7-105" vertex="1">
          <mxGeometry x="30" width="150" height="30" as="geometry">
            <mxRectangle width="150" height="30" as="alternateBounds" />
          </mxGeometry>
        </mxCell>
        <mxCell id="YHc2q_IlJQbj_okdTIY7-108" value="" style="shape=partialRectangle;collapsible=0;dropTarget=0;pointerEvents=0;fillColor=none;top=0;left=0;bottom=0;right=0;points=[[0,0.5],[1,0.5]];portConstraint=eastwest;" parent="YHc2q_IlJQbj_okdTIY7-104" vertex="1">
          <mxGeometry y="60" width="180" height="30" as="geometry" />
        </mxCell>
        <mxCell id="YHc2q_IlJQbj_okdTIY7-109" value="" style="shape=partialRectangle;connectable=0;fillColor=none;top=0;left=0;bottom=0;right=0;editable=1;overflow=hidden;" parent="YHc2q_IlJQbj_okdTIY7-108" vertex="1">
          <mxGeometry width="30" height="30" as="geometry">
            <mxRectangle width="30" height="30" as="alternateBounds" />
          </mxGeometry>
        </mxCell>
        <mxCell id="YHc2q_IlJQbj_okdTIY7-110" value="CompanyName" style="shape=partialRectangle;connectable=0;fillColor=none;top=0;left=0;bottom=0;right=0;align=left;spacingLeft=6;overflow=hidden;" parent="YHc2q_IlJQbj_okdTIY7-108" vertex="1">
          <mxGeometry x="30" width="150" height="30" as="geometry">
            <mxRectangle width="150" height="30" as="alternateBounds" />
          </mxGeometry>
        </mxCell>
        <mxCell id="YHc2q_IlJQbj_okdTIY7-111" value="" style="shape=partialRectangle;collapsible=0;dropTarget=0;pointerEvents=0;fillColor=none;top=0;left=0;bottom=0;right=0;points=[[0,0.5],[1,0.5]];portConstraint=eastwest;" parent="YHc2q_IlJQbj_okdTIY7-104" vertex="1">
          <mxGeometry y="90" width="180" height="30" as="geometry" />
        </mxCell>
        <mxCell id="YHc2q_IlJQbj_okdTIY7-112" value="" style="shape=partialRectangle;connectable=0;fillColor=none;top=0;left=0;bottom=0;right=0;editable=1;overflow=hidden;" parent="YHc2q_IlJQbj_okdTIY7-111" vertex="1">
          <mxGeometry width="30" height="30" as="geometry">
            <mxRectangle width="30" height="30" as="alternateBounds" />
          </mxGeometry>
        </mxCell>
        <mxCell id="YHc2q_IlJQbj_okdTIY7-113" value="CPersonnel" style="shape=partialRectangle;connectable=0;fillColor=none;top=0;left=0;bottom=0;right=0;align=left;spacingLeft=6;overflow=hidden;" parent="YHc2q_IlJQbj_okdTIY7-111" vertex="1">
          <mxGeometry x="30" width="150" height="30" as="geometry">
            <mxRectangle width="150" height="30" as="alternateBounds" />
          </mxGeometry>
        </mxCell>
        <mxCell id="YHc2q_IlJQbj_okdTIY7-114" value="" style="shape=partialRectangle;collapsible=0;dropTarget=0;pointerEvents=0;fillColor=none;top=0;left=0;bottom=0;right=0;points=[[0,0.5],[1,0.5]];portConstraint=eastwest;" parent="YHc2q_IlJQbj_okdTIY7-104" vertex="1">
          <mxGeometry y="120" width="180" height="30" as="geometry" />
        </mxCell>
        <mxCell id="YHc2q_IlJQbj_okdTIY7-115" value="" style="shape=partialRectangle;connectable=0;fillColor=none;top=0;left=0;bottom=0;right=0;editable=1;overflow=hidden;" parent="YHc2q_IlJQbj_okdTIY7-114" vertex="1">
          <mxGeometry width="30" height="30" as="geometry">
            <mxRectangle width="30" height="30" as="alternateBounds" />
          </mxGeometry>
        </mxCell>
        <mxCell id="YHc2q_IlJQbj_okdTIY7-116" value="" style="shape=partialRectangle;connectable=0;fillColor=none;top=0;left=0;bottom=0;right=0;align=left;spacingLeft=6;overflow=hidden;" parent="YHc2q_IlJQbj_okdTIY7-114" vertex="1">
          <mxGeometry x="30" width="150" height="30" as="geometry">
            <mxRectangle width="150" height="30" as="alternateBounds" />
          </mxGeometry>
        </mxCell>
        <mxCell id="YHc2q_IlJQbj_okdTIY7-117" value="TEST" style="shape=table;startSize=30;container=1;collapsible=1;childLayout=tableLayout;fixedRows=1;rowLines=0;fontStyle=1;align=center;resizeLast=1;" parent="1" vertex="1">
          <mxGeometry x="318" y="920" width="180" height="160" as="geometry" />
        </mxCell>
        <mxCell id="YHc2q_IlJQbj_okdTIY7-118" value="" style="shape=partialRectangle;collapsible=0;dropTarget=0;pointerEvents=0;fillColor=none;top=0;left=0;bottom=1;right=0;points=[[0,0.5],[1,0.5]];portConstraint=eastwest;" parent="YHc2q_IlJQbj_okdTIY7-117" vertex="1">
          <mxGeometry y="30" width="180" height="30" as="geometry" />
        </mxCell>
        <mxCell id="YHc2q_IlJQbj_okdTIY7-119" value="PK" style="shape=partialRectangle;connectable=0;fillColor=none;top=0;left=0;bottom=0;right=0;fontStyle=1;overflow=hidden;" parent="YHc2q_IlJQbj_okdTIY7-118" vertex="1">
          <mxGeometry width="30" height="30" as="geometry">
            <mxRectangle width="30" height="30" as="alternateBounds" />
          </mxGeometry>
        </mxCell>
        <mxCell id="YHc2q_IlJQbj_okdTIY7-120" value="TestID" style="shape=partialRectangle;connectable=0;fillColor=none;top=0;left=0;bottom=0;right=0;align=left;spacingLeft=6;fontStyle=5;overflow=hidden;" parent="YHc2q_IlJQbj_okdTIY7-118" vertex="1">
          <mxGeometry x="30" width="150" height="30" as="geometry">
            <mxRectangle width="150" height="30" as="alternateBounds" />
          </mxGeometry>
        </mxCell>
        <mxCell id="YHc2q_IlJQbj_okdTIY7-121" value="" style="shape=partialRectangle;collapsible=0;dropTarget=0;pointerEvents=0;fillColor=none;top=0;left=0;bottom=0;right=0;points=[[0,0.5],[1,0.5]];portConstraint=eastwest;" parent="YHc2q_IlJQbj_okdTIY7-117" vertex="1">
          <mxGeometry y="60" width="180" height="30" as="geometry" />
        </mxCell>
        <mxCell id="YHc2q_IlJQbj_okdTIY7-122" value="FK" style="shape=partialRectangle;connectable=0;fillColor=none;top=0;left=0;bottom=0;right=0;editable=1;overflow=hidden;fontStyle=1" parent="YHc2q_IlJQbj_okdTIY7-121" vertex="1">
          <mxGeometry width="30" height="30" as="geometry">
            <mxRectangle width="30" height="30" as="alternateBounds" />
          </mxGeometry>
        </mxCell>
        <mxCell id="YHc2q_IlJQbj_okdTIY7-123" value="GameID" style="shape=partialRectangle;connectable=0;fillColor=none;top=0;left=0;bottom=0;right=0;align=left;spacingLeft=6;overflow=hidden;fontStyle=1" parent="YHc2q_IlJQbj_okdTIY7-121" vertex="1">
          <mxGeometry x="30" width="150" height="30" as="geometry">
            <mxRectangle width="150" height="30" as="alternateBounds" />
          </mxGeometry>
        </mxCell>
        <mxCell id="YHc2q_IlJQbj_okdTIY7-124" value="" style="shape=partialRectangle;collapsible=0;dropTarget=0;pointerEvents=0;fillColor=none;top=0;left=0;bottom=0;right=0;points=[[0,0.5],[1,0.5]];portConstraint=eastwest;" parent="YHc2q_IlJQbj_okdTIY7-117" vertex="1">
          <mxGeometry y="90" width="180" height="30" as="geometry" />
        </mxCell>
        <mxCell id="YHc2q_IlJQbj_okdTIY7-125" value="" style="shape=partialRectangle;connectable=0;fillColor=none;top=0;left=0;bottom=0;right=0;editable=1;overflow=hidden;" parent="YHc2q_IlJQbj_okdTIY7-124" vertex="1">
          <mxGeometry width="30" height="30" as="geometry">
            <mxRectangle width="30" height="30" as="alternateBounds" />
          </mxGeometry>
        </mxCell>
        <mxCell id="YHc2q_IlJQbj_okdTIY7-126" value="TResult" style="shape=partialRectangle;connectable=0;fillColor=none;top=0;left=0;bottom=0;right=0;align=left;spacingLeft=6;overflow=hidden;" parent="YHc2q_IlJQbj_okdTIY7-124" vertex="1">
          <mxGeometry x="30" width="150" height="30" as="geometry">
            <mxRectangle width="150" height="30" as="alternateBounds" />
          </mxGeometry>
        </mxCell>
        <mxCell id="YHc2q_IlJQbj_okdTIY7-127" value="" style="shape=partialRectangle;collapsible=0;dropTarget=0;pointerEvents=0;fillColor=none;top=0;left=0;bottom=0;right=0;points=[[0,0.5],[1,0.5]];portConstraint=eastwest;" parent="YHc2q_IlJQbj_okdTIY7-117" vertex="1">
          <mxGeometry y="120" width="180" height="30" as="geometry" />
        </mxCell>
        <mxCell id="YHc2q_IlJQbj_okdTIY7-128" value="" style="shape=partialRectangle;connectable=0;fillColor=none;top=0;left=0;bottom=0;right=0;editable=1;overflow=hidden;" parent="YHc2q_IlJQbj_okdTIY7-127" vertex="1">
          <mxGeometry width="30" height="30" as="geometry">
            <mxRectangle width="30" height="30" as="alternateBounds" />
          </mxGeometry>
        </mxCell>
        <mxCell id="YHc2q_IlJQbj_okdTIY7-129" value="TDate" style="shape=partialRectangle;connectable=0;fillColor=none;top=0;left=0;bottom=0;right=0;align=left;spacingLeft=6;overflow=hidden;" parent="YHc2q_IlJQbj_okdTIY7-127" vertex="1">
          <mxGeometry x="30" width="150" height="30" as="geometry">
            <mxRectangle width="150" height="30" as="alternateBounds" />
          </mxGeometry>
        </mxCell>
        <mxCell id="YHc2q_IlJQbj_okdTIY7-130" value="ACCOUNT" style="shape=table;startSize=30;container=1;collapsible=1;childLayout=tableLayout;fixedRows=1;rowLines=0;fontStyle=1;align=center;resizeLast=1;" parent="1" vertex="1">
          <mxGeometry x="567" y="918" width="178" height="177" as="geometry" />
        </mxCell>
        <mxCell id="YHc2q_IlJQbj_okdTIY7-131" value="" style="shape=partialRectangle;collapsible=0;dropTarget=0;pointerEvents=0;fillColor=none;top=0;left=0;bottom=1;right=0;points=[[0,0.5],[1,0.5]];portConstraint=eastwest;" parent="YHc2q_IlJQbj_okdTIY7-130" vertex="1">
          <mxGeometry y="30" width="178" height="30" as="geometry" />
        </mxCell>
        <mxCell id="YHc2q_IlJQbj_okdTIY7-132" value="PK" style="shape=partialRectangle;connectable=0;fillColor=none;top=0;left=0;bottom=0;right=0;fontStyle=1;overflow=hidden;" parent="YHc2q_IlJQbj_okdTIY7-131" vertex="1">
          <mxGeometry width="30" height="30" as="geometry">
            <mxRectangle width="30" height="30" as="alternateBounds" />
          </mxGeometry>
        </mxCell>
        <mxCell id="YHc2q_IlJQbj_okdTIY7-133" value="AccountID" style="shape=partialRectangle;connectable=0;fillColor=none;top=0;left=0;bottom=0;right=0;align=left;spacingLeft=6;fontStyle=5;overflow=hidden;" parent="YHc2q_IlJQbj_okdTIY7-131" vertex="1">
          <mxGeometry x="30" width="148" height="30" as="geometry">
            <mxRectangle width="148" height="30" as="alternateBounds" />
          </mxGeometry>
        </mxCell>
        <mxCell id="YHc2q_IlJQbj_okdTIY7-134" value="" style="shape=partialRectangle;collapsible=0;dropTarget=0;pointerEvents=0;fillColor=none;top=0;left=0;bottom=0;right=0;points=[[0,0.5],[1,0.5]];portConstraint=eastwest;" parent="YHc2q_IlJQbj_okdTIY7-130" vertex="1">
          <mxGeometry y="60" width="178" height="30" as="geometry" />
        </mxCell>
        <mxCell id="YHc2q_IlJQbj_okdTIY7-135" value="FK" style="shape=partialRectangle;connectable=0;fillColor=none;top=0;left=0;bottom=0;right=0;editable=1;overflow=hidden;fontStyle=1" parent="YHc2q_IlJQbj_okdTIY7-134" vertex="1">
          <mxGeometry width="30" height="30" as="geometry">
            <mxRectangle width="30" height="30" as="alternateBounds" />
          </mxGeometry>
        </mxCell>
        <mxCell id="YHc2q_IlJQbj_okdTIY7-136" value="UserID" style="shape=partialRectangle;connectable=0;fillColor=none;top=0;left=0;bottom=0;right=0;align=left;spacingLeft=6;overflow=hidden;fontStyle=1" parent="YHc2q_IlJQbj_okdTIY7-134" vertex="1">
          <mxGeometry x="30" width="148" height="30" as="geometry">
            <mxRectangle width="148" height="30" as="alternateBounds" />
          </mxGeometry>
        </mxCell>
        <mxCell id="YHc2q_IlJQbj_okdTIY7-137" value="" style="shape=partialRectangle;collapsible=0;dropTarget=0;pointerEvents=0;fillColor=none;top=0;left=0;bottom=0;right=0;points=[[0,0.5],[1,0.5]];portConstraint=eastwest;" parent="YHc2q_IlJQbj_okdTIY7-130" vertex="1">
          <mxGeometry y="90" width="178" height="30" as="geometry" />
        </mxCell>
        <mxCell id="YHc2q_IlJQbj_okdTIY7-138" value="" style="shape=partialRectangle;connectable=0;fillColor=none;top=0;left=0;bottom=0;right=0;editable=1;overflow=hidden;" parent="YHc2q_IlJQbj_okdTIY7-137" vertex="1">
          <mxGeometry width="30" height="30" as="geometry">
            <mxRectangle width="30" height="30" as="alternateBounds" />
          </mxGeometry>
        </mxCell>
        <mxCell id="YHc2q_IlJQbj_okdTIY7-139" value="UserName" style="shape=partialRectangle;connectable=0;fillColor=none;top=0;left=0;bottom=0;right=0;align=left;spacingLeft=6;overflow=hidden;" parent="YHc2q_IlJQbj_okdTIY7-137" vertex="1">
          <mxGeometry x="30" width="148" height="30" as="geometry">
            <mxRectangle width="148" height="30" as="alternateBounds" />
          </mxGeometry>
        </mxCell>
        <mxCell id="YHc2q_IlJQbj_okdTIY7-140" value="" style="shape=partialRectangle;collapsible=0;dropTarget=0;pointerEvents=0;fillColor=none;top=0;left=0;bottom=0;right=0;points=[[0,0.5],[1,0.5]];portConstraint=eastwest;" parent="YHc2q_IlJQbj_okdTIY7-130" vertex="1">
          <mxGeometry y="120" width="178" height="30" as="geometry" />
        </mxCell>
        <mxCell id="YHc2q_IlJQbj_okdTIY7-141" value="" style="shape=partialRectangle;connectable=0;fillColor=none;top=0;left=0;bottom=0;right=0;editable=1;overflow=hidden;" parent="YHc2q_IlJQbj_okdTIY7-140" vertex="1">
          <mxGeometry width="30" height="30" as="geometry">
            <mxRectangle width="30" height="30" as="alternateBounds" />
          </mxGeometry>
        </mxCell>
        <mxCell id="YHc2q_IlJQbj_okdTIY7-142" value="Email" style="shape=partialRectangle;connectable=0;fillColor=none;top=0;left=0;bottom=0;right=0;align=left;spacingLeft=6;overflow=hidden;" parent="YHc2q_IlJQbj_okdTIY7-140" vertex="1">
          <mxGeometry x="30" width="148" height="30" as="geometry">
            <mxRectangle width="148" height="30" as="alternateBounds" />
          </mxGeometry>
        </mxCell>
        <mxCell id="YHc2q_IlJQbj_okdTIY7-143" value="USER" style="shape=table;startSize=30;container=1;collapsible=1;childLayout=tableLayout;fixedRows=1;rowLines=0;fontStyle=1;align=center;resizeLast=1;" parent="1" vertex="1">
          <mxGeometry x="934" y="914" width="180" height="160" as="geometry" />
        </mxCell>
        <mxCell id="YHc2q_IlJQbj_okdTIY7-144" value="" style="shape=partialRectangle;collapsible=0;dropTarget=0;pointerEvents=0;fillColor=none;top=0;left=0;bottom=1;right=0;points=[[0,0.5],[1,0.5]];portConstraint=eastwest;" parent="YHc2q_IlJQbj_okdTIY7-143" vertex="1">
          <mxGeometry y="30" width="180" height="30" as="geometry" />
        </mxCell>
        <mxCell id="YHc2q_IlJQbj_okdTIY7-145" value="PK" style="shape=partialRectangle;connectable=0;fillColor=none;top=0;left=0;bottom=0;right=0;fontStyle=1;overflow=hidden;" parent="YHc2q_IlJQbj_okdTIY7-144" vertex="1">
          <mxGeometry width="30" height="30" as="geometry">
            <mxRectangle width="30" height="30" as="alternateBounds" />
          </mxGeometry>
        </mxCell>
        <mxCell id="YHc2q_IlJQbj_okdTIY7-146" value="UserID" style="shape=partialRectangle;connectable=0;fillColor=none;top=0;left=0;bottom=0;right=0;align=left;spacingLeft=6;fontStyle=5;overflow=hidden;" parent="YHc2q_IlJQbj_okdTIY7-144" vertex="1">
          <mxGeometry x="30" width="150" height="30" as="geometry">
            <mxRectangle width="150" height="30" as="alternateBounds" />
          </mxGeometry>
        </mxCell>
        <mxCell id="YHc2q_IlJQbj_okdTIY7-147" value="" style="shape=partialRectangle;collapsible=0;dropTarget=0;pointerEvents=0;fillColor=none;top=0;left=0;bottom=0;right=0;points=[[0,0.5],[1,0.5]];portConstraint=eastwest;" parent="YHc2q_IlJQbj_okdTIY7-143" vertex="1">
          <mxGeometry y="60" width="180" height="30" as="geometry" />
        </mxCell>
        <mxCell id="YHc2q_IlJQbj_okdTIY7-148" value="" style="shape=partialRectangle;connectable=0;fillColor=none;top=0;left=0;bottom=0;right=0;editable=1;overflow=hidden;" parent="YHc2q_IlJQbj_okdTIY7-147" vertex="1">
          <mxGeometry width="30" height="30" as="geometry">
            <mxRectangle width="30" height="30" as="alternateBounds" />
          </mxGeometry>
        </mxCell>
        <mxCell id="YHc2q_IlJQbj_okdTIY7-149" value="Name" style="shape=partialRectangle;connectable=0;fillColor=none;top=0;left=0;bottom=0;right=0;align=left;spacingLeft=6;overflow=hidden;" parent="YHc2q_IlJQbj_okdTIY7-147" vertex="1">
          <mxGeometry x="30" width="150" height="30" as="geometry">
            <mxRectangle width="150" height="30" as="alternateBounds" />
          </mxGeometry>
        </mxCell>
        <mxCell id="YHc2q_IlJQbj_okdTIY7-150" value="" style="shape=partialRectangle;collapsible=0;dropTarget=0;pointerEvents=0;fillColor=none;top=0;left=0;bottom=0;right=0;points=[[0,0.5],[1,0.5]];portConstraint=eastwest;" parent="YHc2q_IlJQbj_okdTIY7-143" vertex="1">
          <mxGeometry y="90" width="180" height="30" as="geometry" />
        </mxCell>
        <mxCell id="YHc2q_IlJQbj_okdTIY7-151" value="" style="shape=partialRectangle;connectable=0;fillColor=none;top=0;left=0;bottom=0;right=0;editable=1;overflow=hidden;" parent="YHc2q_IlJQbj_okdTIY7-150" vertex="1">
          <mxGeometry width="30" height="30" as="geometry">
            <mxRectangle width="30" height="30" as="alternateBounds" />
          </mxGeometry>
        </mxCell>
        <mxCell id="YHc2q_IlJQbj_okdTIY7-152" value="Surname" style="shape=partialRectangle;connectable=0;fillColor=none;top=0;left=0;bottom=0;right=0;align=left;spacingLeft=6;overflow=hidden;" parent="YHc2q_IlJQbj_okdTIY7-150" vertex="1">
          <mxGeometry x="30" width="150" height="30" as="geometry">
            <mxRectangle width="150" height="30" as="alternateBounds" />
          </mxGeometry>
        </mxCell>
        <mxCell id="YHc2q_IlJQbj_okdTIY7-153" value="" style="shape=partialRectangle;collapsible=0;dropTarget=0;pointerEvents=0;fillColor=none;top=0;left=0;bottom=0;right=0;points=[[0,0.5],[1,0.5]];portConstraint=eastwest;" parent="YHc2q_IlJQbj_okdTIY7-143" vertex="1">
          <mxGeometry y="120" width="180" height="30" as="geometry" />
        </mxCell>
        <mxCell id="YHc2q_IlJQbj_okdTIY7-154" value="" style="shape=partialRectangle;connectable=0;fillColor=none;top=0;left=0;bottom=0;right=0;editable=1;overflow=hidden;" parent="YHc2q_IlJQbj_okdTIY7-153" vertex="1">
          <mxGeometry width="30" height="30" as="geometry">
            <mxRectangle width="30" height="30" as="alternateBounds" />
          </mxGeometry>
        </mxCell>
        <mxCell id="YHc2q_IlJQbj_okdTIY7-155" value="Email" style="shape=partialRectangle;connectable=0;fillColor=none;top=0;left=0;bottom=0;right=0;align=left;spacingLeft=6;overflow=hidden;" parent="YHc2q_IlJQbj_okdTIY7-153" vertex="1">
          <mxGeometry x="30" width="150" height="30" as="geometry">
            <mxRectangle width="150" height="30" as="alternateBounds" />
          </mxGeometry>
        </mxCell>
        <mxCell id="YHc2q_IlJQbj_okdTIY7-156" value="LAUNCH" style="shape=table;startSize=30;container=1;collapsible=1;childLayout=tableLayout;fixedRows=1;rowLines=0;fontStyle=1;align=center;resizeLast=1;" parent="1" vertex="1">
          <mxGeometry x="974" y="690" width="180" height="160" as="geometry" />
        </mxCell>
        <mxCell id="YHc2q_IlJQbj_okdTIY7-157" value="" style="shape=partialRectangle;collapsible=0;dropTarget=0;pointerEvents=0;fillColor=none;top=0;left=0;bottom=1;right=0;points=[[0,0.5],[1,0.5]];portConstraint=eastwest;" parent="YHc2q_IlJQbj_okdTIY7-156" vertex="1">
          <mxGeometry y="30" width="180" height="30" as="geometry" />
        </mxCell>
        <mxCell id="YHc2q_IlJQbj_okdTIY7-158" value="PK" style="shape=partialRectangle;connectable=0;fillColor=none;top=0;left=0;bottom=0;right=0;fontStyle=1;overflow=hidden;" parent="YHc2q_IlJQbj_okdTIY7-157" vertex="1">
          <mxGeometry width="30" height="30" as="geometry">
            <mxRectangle width="30" height="30" as="alternateBounds" />
          </mxGeometry>
        </mxCell>
        <mxCell id="YHc2q_IlJQbj_okdTIY7-159" value="LaunchID" style="shape=partialRectangle;connectable=0;fillColor=none;top=0;left=0;bottom=0;right=0;align=left;spacingLeft=6;fontStyle=5;overflow=hidden;" parent="YHc2q_IlJQbj_okdTIY7-157" vertex="1">
          <mxGeometry x="30" width="150" height="30" as="geometry">
            <mxRectangle width="150" height="30" as="alternateBounds" />
          </mxGeometry>
        </mxCell>
        <mxCell id="YHc2q_IlJQbj_okdTIY7-160" value="" style="shape=partialRectangle;collapsible=0;dropTarget=0;pointerEvents=0;fillColor=none;top=0;left=0;bottom=0;right=0;points=[[0,0.5],[1,0.5]];portConstraint=eastwest;" parent="YHc2q_IlJQbj_okdTIY7-156" vertex="1">
          <mxGeometry y="60" width="180" height="30" as="geometry" />
        </mxCell>
        <mxCell id="YHc2q_IlJQbj_okdTIY7-161" value="" style="shape=partialRectangle;connectable=0;fillColor=none;top=0;left=0;bottom=0;right=0;editable=1;overflow=hidden;" parent="YHc2q_IlJQbj_okdTIY7-160" vertex="1">
          <mxGeometry width="30" height="30" as="geometry">
            <mxRectangle width="30" height="30" as="alternateBounds" />
          </mxGeometry>
        </mxCell>
        <mxCell id="YHc2q_IlJQbj_okdTIY7-162" value="LName" style="shape=partialRectangle;connectable=0;fillColor=none;top=0;left=0;bottom=0;right=0;align=left;spacingLeft=6;overflow=hidden;" parent="YHc2q_IlJQbj_okdTIY7-160" vertex="1">
          <mxGeometry x="30" width="150" height="30" as="geometry">
            <mxRectangle width="150" height="30" as="alternateBounds" />
          </mxGeometry>
        </mxCell>
        <mxCell id="YHc2q_IlJQbj_okdTIY7-163" value="" style="shape=partialRectangle;collapsible=0;dropTarget=0;pointerEvents=0;fillColor=none;top=0;left=0;bottom=0;right=0;points=[[0,0.5],[1,0.5]];portConstraint=eastwest;" parent="YHc2q_IlJQbj_okdTIY7-156" vertex="1">
          <mxGeometry y="90" width="180" height="30" as="geometry" />
        </mxCell>
        <mxCell id="YHc2q_IlJQbj_okdTIY7-164" value="" style="shape=partialRectangle;connectable=0;fillColor=none;top=0;left=0;bottom=0;right=0;editable=1;overflow=hidden;" parent="YHc2q_IlJQbj_okdTIY7-163" vertex="1">
          <mxGeometry width="30" height="30" as="geometry">
            <mxRectangle width="30" height="30" as="alternateBounds" />
          </mxGeometry>
        </mxCell>
        <mxCell id="YHc2q_IlJQbj_okdTIY7-165" value="LResult" style="shape=partialRectangle;connectable=0;fillColor=none;top=0;left=0;bottom=0;right=0;align=left;spacingLeft=6;overflow=hidden;" parent="YHc2q_IlJQbj_okdTIY7-163" vertex="1">
          <mxGeometry x="30" width="150" height="30" as="geometry">
            <mxRectangle width="150" height="30" as="alternateBounds" />
          </mxGeometry>
        </mxCell>
        <mxCell id="YHc2q_IlJQbj_okdTIY7-166" value="" style="shape=partialRectangle;collapsible=0;dropTarget=0;pointerEvents=0;fillColor=none;top=0;left=0;bottom=0;right=0;points=[[0,0.5],[1,0.5]];portConstraint=eastwest;" parent="YHc2q_IlJQbj_okdTIY7-156" vertex="1">
          <mxGeometry y="120" width="180" height="30" as="geometry" />
        </mxCell>
        <mxCell id="YHc2q_IlJQbj_okdTIY7-167" value="" style="shape=partialRectangle;connectable=0;fillColor=none;top=0;left=0;bottom=0;right=0;editable=1;overflow=hidden;" parent="YHc2q_IlJQbj_okdTIY7-166" vertex="1">
          <mxGeometry width="30" height="30" as="geometry">
            <mxRectangle width="30" height="30" as="alternateBounds" />
          </mxGeometry>
        </mxCell>
        <mxCell id="YHc2q_IlJQbj_okdTIY7-168" value="LDate" style="shape=partialRectangle;connectable=0;fillColor=none;top=0;left=0;bottom=0;right=0;align=left;spacingLeft=6;overflow=hidden;" parent="YHc2q_IlJQbj_okdTIY7-166" vertex="1">
          <mxGeometry x="30" width="150" height="30" as="geometry">
            <mxRectangle width="150" height="30" as="alternateBounds" />
          </mxGeometry>
        </mxCell>
        <mxCell id="YHc2q_IlJQbj_okdTIY7-169" value="VERSİON" style="shape=table;startSize=30;container=1;collapsible=1;childLayout=tableLayout;fixedRows=1;rowLines=0;fontStyle=1;align=center;resizeLast=1;" parent="1" vertex="1">
          <mxGeometry x="931" y="445" width="180" height="160" as="geometry" />
        </mxCell>
        <mxCell id="YHc2q_IlJQbj_okdTIY7-170" value="" style="shape=partialRectangle;collapsible=0;dropTarget=0;pointerEvents=0;fillColor=none;top=0;left=0;bottom=1;right=0;points=[[0,0.5],[1,0.5]];portConstraint=eastwest;" parent="YHc2q_IlJQbj_okdTIY7-169" vertex="1">
          <mxGeometry y="30" width="180" height="30" as="geometry" />
        </mxCell>
        <mxCell id="YHc2q_IlJQbj_okdTIY7-171" value="PK" style="shape=partialRectangle;connectable=0;fillColor=none;top=0;left=0;bottom=0;right=0;fontStyle=1;overflow=hidden;" parent="YHc2q_IlJQbj_okdTIY7-170" vertex="1">
          <mxGeometry width="30" height="30" as="geometry">
            <mxRectangle width="30" height="30" as="alternateBounds" />
          </mxGeometry>
        </mxCell>
        <mxCell id="YHc2q_IlJQbj_okdTIY7-172" value="VersionID" style="shape=partialRectangle;connectable=0;fillColor=none;top=0;left=0;bottom=0;right=0;align=left;spacingLeft=6;fontStyle=5;overflow=hidden;" parent="YHc2q_IlJQbj_okdTIY7-170" vertex="1">
          <mxGeometry x="30" width="150" height="30" as="geometry">
            <mxRectangle width="150" height="30" as="alternateBounds" />
          </mxGeometry>
        </mxCell>
        <mxCell id="YHc2q_IlJQbj_okdTIY7-173" value="" style="shape=partialRectangle;collapsible=0;dropTarget=0;pointerEvents=0;fillColor=none;top=0;left=0;bottom=0;right=0;points=[[0,0.5],[1,0.5]];portConstraint=eastwest;" parent="YHc2q_IlJQbj_okdTIY7-169" vertex="1">
          <mxGeometry y="60" width="180" height="30" as="geometry" />
        </mxCell>
        <mxCell id="YHc2q_IlJQbj_okdTIY7-174" value="" style="shape=partialRectangle;connectable=0;fillColor=none;top=0;left=0;bottom=0;right=0;editable=1;overflow=hidden;" parent="YHc2q_IlJQbj_okdTIY7-173" vertex="1">
          <mxGeometry width="30" height="30" as="geometry">
            <mxRectangle width="30" height="30" as="alternateBounds" />
          </mxGeometry>
        </mxCell>
        <mxCell id="YHc2q_IlJQbj_okdTIY7-175" value="VersionNu" style="shape=partialRectangle;connectable=0;fillColor=none;top=0;left=0;bottom=0;right=0;align=left;spacingLeft=6;overflow=hidden;" parent="YHc2q_IlJQbj_okdTIY7-173" vertex="1">
          <mxGeometry x="30" width="150" height="30" as="geometry">
            <mxRectangle width="150" height="30" as="alternateBounds" />
          </mxGeometry>
        </mxCell>
        <mxCell id="YHc2q_IlJQbj_okdTIY7-176" value="" style="shape=partialRectangle;collapsible=0;dropTarget=0;pointerEvents=0;fillColor=none;top=0;left=0;bottom=0;right=0;points=[[0,0.5],[1,0.5]];portConstraint=eastwest;" parent="YHc2q_IlJQbj_okdTIY7-169" vertex="1">
          <mxGeometry y="90" width="180" height="30" as="geometry" />
        </mxCell>
        <mxCell id="YHc2q_IlJQbj_okdTIY7-177" value="" style="shape=partialRectangle;connectable=0;fillColor=none;top=0;left=0;bottom=0;right=0;editable=1;overflow=hidden;" parent="YHc2q_IlJQbj_okdTIY7-176" vertex="1">
          <mxGeometry width="30" height="30" as="geometry">
            <mxRectangle width="30" height="30" as="alternateBounds" />
          </mxGeometry>
        </mxCell>
        <mxCell id="YHc2q_IlJQbj_okdTIY7-178" value="VDate" style="shape=partialRectangle;connectable=0;fillColor=none;top=0;left=0;bottom=0;right=0;align=left;spacingLeft=6;overflow=hidden;" parent="YHc2q_IlJQbj_okdTIY7-176" vertex="1">
          <mxGeometry x="30" width="150" height="30" as="geometry">
            <mxRectangle width="150" height="30" as="alternateBounds" />
          </mxGeometry>
        </mxCell>
        <mxCell id="YHc2q_IlJQbj_okdTIY7-179" value="" style="shape=partialRectangle;collapsible=0;dropTarget=0;pointerEvents=0;fillColor=none;top=0;left=0;bottom=0;right=0;points=[[0,0.5],[1,0.5]];portConstraint=eastwest;" parent="YHc2q_IlJQbj_okdTIY7-169" vertex="1">
          <mxGeometry y="120" width="180" height="30" as="geometry" />
        </mxCell>
        <mxCell id="YHc2q_IlJQbj_okdTIY7-180" value="" style="shape=partialRectangle;connectable=0;fillColor=none;top=0;left=0;bottom=0;right=0;editable=1;overflow=hidden;" parent="YHc2q_IlJQbj_okdTIY7-179" vertex="1">
          <mxGeometry width="30" height="30" as="geometry">
            <mxRectangle width="30" height="30" as="alternateBounds" />
          </mxGeometry>
        </mxCell>
        <mxCell id="YHc2q_IlJQbj_okdTIY7-181" value="" style="shape=partialRectangle;connectable=0;fillColor=none;top=0;left=0;bottom=0;right=0;align=left;spacingLeft=6;overflow=hidden;" parent="YHc2q_IlJQbj_okdTIY7-179" vertex="1">
          <mxGeometry x="30" width="150" height="30" as="geometry">
            <mxRectangle width="150" height="30" as="alternateBounds" />
          </mxGeometry>
        </mxCell>
        <mxCell id="em-6Pqp0bJwHIh0dcvL2-1" value="is for" style="text;strokeColor=none;fillColor=none;align=left;verticalAlign=middle;spacingLeft=4;spacingRight=4;overflow=hidden;points=[[0,0.5],[1,0.5]];portConstraint=eastwest;rotatable=0;" parent="1" vertex="1">
          <mxGeometry x="212" y="108" width="80" height="30" as="geometry" />
        </mxCell>
        <mxCell id="em-6Pqp0bJwHIh0dcvL2-3" value=" Downloads" style="text;strokeColor=none;fillColor=none;spacingLeft=4;spacingRight=4;overflow=hidden;rotatable=0;points=[[0,0.5],[1,0.5]];portConstraint=eastwest;fontSize=12;" parent="1" vertex="1">
          <mxGeometry x="447" y="609.5" width="154" height="30" as="geometry" />
        </mxCell>
        <mxCell id="em-6Pqp0bJwHIh0dcvL2-4" value="" style="line;strokeWidth=1;rotatable=0;dashed=0;labelPosition=right;align=left;verticalAlign=middle;spacingTop=0;spacingLeft=6;points=[];portConstraint=eastwest;" parent="1" vertex="1">
          <mxGeometry x="425" y="576" width="182" height="10" as="geometry" />
        </mxCell>
        <mxCell id="em-6Pqp0bJwHIh0dcvL2-5" value="" style="fontSize=12;html=1;endArrow=ERzeroToMany;startArrow=ERmandOne;rounded=0;entryX=-0.011;entryY=0.167;entryDx=0;entryDy=0;entryPerimeter=0;edgeStyle=elbowEdgeStyle;exitX=1;exitY=0.133;exitDx=0;exitDy=0;exitPerimeter=0;" parent="1" source="YHc2q_IlJQbj_okdTIY7-45" target="YHc2q_IlJQbj_okdTIY7-35" edge="1">
          <mxGeometry width="100" height="100" relative="1" as="geometry">
            <mxPoint x="942" y="315" as="sourcePoint" />
            <mxPoint x="889" y="254" as="targetPoint" />
          </mxGeometry>
        </mxCell>
        <mxCell id="em-6Pqp0bJwHIh0dcvL2-6" value="(0,38)" style="text;strokeColor=none;fillColor=none;align=left;verticalAlign=middle;spacingLeft=4;spacingRight=4;overflow=hidden;points=[[0,0.5],[1,0.5]];portConstraint=eastwest;rotatable=0;" parent="1" vertex="1">
          <mxGeometry x="972" y="91" width="80" height="30" as="geometry" />
        </mxCell>
        <mxCell id="em-6Pqp0bJwHIh0dcvL2-7" value="" style="edgeStyle=entityRelationEdgeStyle;fontSize=12;html=1;endArrow=ERoneToMany;startArrow=ERzeroToOne;rounded=0;exitX=1;exitY=0.5;exitDx=0;exitDy=0;entryX=-0.006;entryY=0.3;entryDx=0;entryDy=0;entryPerimeter=0;dashed=1;strokeColor=#080808;" parent="1" source="YHc2q_IlJQbj_okdTIY7-61" target="YHc2q_IlJQbj_okdTIY7-176" edge="1">
          <mxGeometry width="100" height="100" relative="1" as="geometry">
            <mxPoint x="831" y="631" as="sourcePoint" />
            <mxPoint x="928" y="531" as="targetPoint" />
          </mxGeometry>
        </mxCell>
        <mxCell id="em-6Pqp0bJwHIh0dcvL2-8" value="possible" style="text;strokeColor=none;fillColor=none;align=left;verticalAlign=middle;spacingLeft=4;spacingRight=4;overflow=hidden;points=[[0,0.5],[1,0.5]];portConstraint=eastwest;rotatable=0;" parent="1" vertex="1">
          <mxGeometry x="737" y="516" width="80" height="30" as="geometry" />
        </mxCell>
        <mxCell id="em-6Pqp0bJwHIh0dcvL2-10" value="p&lt;br&gt;o&lt;br&gt;s&lt;br&gt;s&lt;br&gt;i&lt;br&gt;b&lt;br&gt;l&lt;br&gt;e" style="text;html=1;align=center;verticalAlign=middle;resizable=0;points=[];autosize=1;strokeColor=none;fillColor=none;" parent="1" vertex="1">
          <mxGeometry x="998" y="186" width="17" height="116" as="geometry" />
        </mxCell>
        <mxCell id="em-6Pqp0bJwHIh0dcvL2-11" value="" style="edgeStyle=elbowEdgeStyle;fontSize=12;html=1;endArrow=ERoneToMany;startArrow=ERmandOne;rounded=0;dashed=1;strokeColor=#080808;exitX=0;exitY=0.5;exitDx=0;exitDy=0;" parent="1" source="YHc2q_IlJQbj_okdTIY7-163" edge="1">
          <mxGeometry width="100" height="100" relative="1" as="geometry">
            <mxPoint x="822" y="969" as="sourcePoint" />
            <mxPoint x="602" y="595" as="targetPoint" />
            <Array as="points">
              <mxPoint x="815" y="801" />
            </Array>
          </mxGeometry>
        </mxCell>
        <mxCell id="em-6Pqp0bJwHIh0dcvL2-12" value="possible" style="text;strokeColor=none;fillColor=none;align=left;verticalAlign=middle;spacingLeft=4;spacingRight=4;overflow=hidden;points=[[0,0.5],[1,0.5]];portConstraint=eastwest;rotatable=0;" parent="1" vertex="1">
          <mxGeometry x="702" y="563" width="80" height="30" as="geometry" />
        </mxCell>
        <mxCell id="em-6Pqp0bJwHIh0dcvL2-15" value="" style="edgeStyle=entityRelationEdgeStyle;fontSize=12;html=1;endArrow=ERzeroToMany;startArrow=ERzeroToOne;rounded=0;dashed=1;strokeColor=#000000;entryX=1;entryY=0.5;entryDx=0;entryDy=0;exitX=-0.011;exitY=0.033;exitDx=0;exitDy=0;exitPerimeter=0;" parent="1" source="YHc2q_IlJQbj_okdTIY7-150" target="em-6Pqp0bJwHIh0dcvL2-3" edge="1">
          <mxGeometry width="100" height="100" relative="1" as="geometry">
            <mxPoint x="840" y="949" as="sourcePoint" />
            <mxPoint x="676" y="720" as="targetPoint" />
          </mxGeometry>
        </mxCell>
        <mxCell id="em-6Pqp0bJwHIh0dcvL2-16" value="" style="edgeStyle=orthogonalEdgeStyle;fontSize=12;html=1;endArrow=ERoneToMany;startArrow=ERmandOne;rounded=0;dashed=1;strokeColor=#000000;curved=1;exitX=0;exitY=0.5;exitDx=0;exitDy=0;" parent="1" source="YHc2q_IlJQbj_okdTIY7-150" target="YHc2q_IlJQbj_okdTIY7-137" edge="1">
          <mxGeometry width="100" height="100" relative="1" as="geometry">
            <mxPoint x="573" y="972" as="sourcePoint" />
            <mxPoint x="517" y="971" as="targetPoint" />
            <Array as="points" />
          </mxGeometry>
        </mxCell>
        <mxCell id="em-6Pqp0bJwHIh0dcvL2-17" value="Password" style="text;strokeColor=none;fillColor=none;align=left;verticalAlign=middle;spacingLeft=4;spacingRight=4;overflow=hidden;points=[[0,0.5],[1,0.5]];portConstraint=eastwest;rotatable=0;" parent="1" vertex="1">
          <mxGeometry x="598" y="1065" width="80" height="30" as="geometry" />
        </mxCell>
        <mxCell id="em-6Pqp0bJwHIh0dcvL2-18" value="" style="edgeStyle=orthogonalEdgeStyle;fontSize=12;html=1;endArrow=ERoneToMany;startArrow=ERmandOne;rounded=0;dashed=1;strokeColor=#000000;entryX=0.422;entryY=0;entryDx=0;entryDy=0;entryPerimeter=0;" parent="1" target="YHc2q_IlJQbj_okdTIY7-117" edge="1">
          <mxGeometry width="100" height="100" relative="1" as="geometry">
            <mxPoint x="434" y="730" as="sourcePoint" />
            <mxPoint x="402" y="876" as="targetPoint" />
          </mxGeometry>
        </mxCell>
        <mxCell id="em-6Pqp0bJwHIh0dcvL2-19" value="p&#xa;u&#xa;b&#xa;l&#xa;i&#xa;s&#xa;h" style="text;strokeColor=none;fillColor=none;align=left;verticalAlign=middle;spacingLeft=4;spacingRight=4;overflow=hidden;points=[[0,0.5],[1,0.5]];portConstraint=eastwest;rotatable=0;" parent="1" vertex="1">
          <mxGeometry x="376" y="802" width="19" height="116" as="geometry" />
        </mxCell>
        <mxCell id="em-6Pqp0bJwHIh0dcvL2-20" value="" style="edgeStyle=entityRelationEdgeStyle;fontSize=12;html=1;endArrow=ERzeroToMany;startArrow=ERmandOne;rounded=0;dashed=1;strokeColor=#000000;exitX=1.005;exitY=0.118;exitDx=0;exitDy=0;exitPerimeter=0;" parent="1" source="YHc2q_IlJQbj_okdTIY7-88" target="YHc2q_IlJQbj_okdTIY7-61" edge="1">
          <mxGeometry width="100" height="100" relative="1" as="geometry">
            <mxPoint x="325" y="615" as="sourcePoint" />
            <mxPoint x="425" y="515" as="targetPoint" />
          </mxGeometry>
        </mxCell>
        <mxCell id="em-6Pqp0bJwHIh0dcvL2-21" value="" style="fontSize=12;html=1;endArrow=ERoneToMany;startArrow=ERmandOne;rounded=0;strokeColor=#000000;entryX=0.997;entryY=-0.128;entryDx=0;entryDy=0;entryPerimeter=0;" parent="1" target="YHc2q_IlJQbj_okdTIY7-95" edge="1">
          <mxGeometry width="100" height="100" relative="1" as="geometry">
            <mxPoint x="409" y="662" as="sourcePoint" />
            <mxPoint x="225" y="660" as="targetPoint" />
          </mxGeometry>
        </mxCell>
        <mxCell id="em-6Pqp0bJwHIh0dcvL2-23" value="" style="fontSize=12;html=1;endArrow=ERzeroToMany;startArrow=ERmandOne;rounded=0;strokeColor=#000000;exitX=0.5;exitY=0;exitDx=0;exitDy=0;entryX=0.532;entryY=1.019;entryDx=0;entryDy=0;entryPerimeter=0;" parent="1" source="YHc2q_IlJQbj_okdTIY7-104" edge="1" target="YHc2q_IlJQbj_okdTIY7-101">
          <mxGeometry width="100" height="100" relative="1" as="geometry">
            <mxPoint x="141" y="873" as="sourcePoint" />
            <mxPoint x="141" y="766" as="targetPoint" />
          </mxGeometry>
        </mxCell>
        <mxCell id="em-6Pqp0bJwHIh0dcvL2-24" value="CompanyID" style="text;strokeColor=none;fillColor=none;align=left;verticalAlign=middle;spacingLeft=4;spacingRight=4;overflow=hidden;points=[[0,0.5],[1,0.5]];portConstraint=eastwest;rotatable=0;fontStyle=5" parent="1" vertex="1">
          <mxGeometry x="77" y="632.25" width="80" height="30" as="geometry" />
        </mxCell>
        <mxCell id="em-6Pqp0bJwHIh0dcvL2-25" value="PK,FK" style="text;strokeColor=none;fillColor=none;align=left;verticalAlign=middle;spacingLeft=4;spacingRight=4;overflow=hidden;points=[[0,0.5],[1,0.5]];portConstraint=eastwest;rotatable=0;fontStyle=1" parent="1" vertex="1">
          <mxGeometry x="32" y="639.5" width="47" height="15.5" as="geometry" />
        </mxCell>
        <mxCell id="em-6Pqp0bJwHIh0dcvL2-26" value="(1,8)" style="text;strokeColor=none;fillColor=none;align=left;verticalAlign=middle;spacingLeft=4;spacingRight=4;overflow=hidden;points=[[0,0.5],[1,0.5]];portConstraint=eastwest;rotatable=0;" parent="1" vertex="1">
          <mxGeometry x="246" y="104" width="80" height="30" as="geometry" />
        </mxCell>
        <mxCell id="4iORNqGe_NsJVo8OUvX1-1" value="promate" style="text;strokeColor=none;fillColor=none;align=left;verticalAlign=middle;spacingLeft=4;spacingRight=4;overflow=hidden;points=[[0,0.5],[1,0.5]];portConstraint=eastwest;rotatable=0;" vertex="1" parent="1">
          <mxGeometry x="346" y="284" width="80" height="30" as="geometry" />
        </mxCell>
        <mxCell id="4iORNqGe_NsJVo8OUvX1-2" value="possible" style="text;strokeColor=none;fillColor=none;align=left;verticalAlign=middle;spacingLeft=4;spacingRight=4;overflow=hidden;points=[[0,0.5],[1,0.5]];portConstraint=eastwest;rotatable=0;" vertex="1" parent="1">
          <mxGeometry x="693" y="99" width="80" height="30" as="geometry" />
        </mxCell>
        <mxCell id="4iORNqGe_NsJVo8OUvX1-4" value="publications" style="text;strokeColor=none;fillColor=none;align=left;verticalAlign=middle;spacingLeft=4;spacingRight=4;overflow=hidden;points=[[0,0.5],[1,0.5]];portConstraint=eastwest;rotatable=0;" vertex="1" parent="1">
          <mxGeometry x="288" y="471" width="80" height="30" as="geometry" />
        </mxCell>
        <mxCell id="4iORNqGe_NsJVo8OUvX1-5" value="own" style="text;strokeColor=none;fillColor=none;align=left;verticalAlign=middle;spacingLeft=4;spacingRight=4;overflow=hidden;points=[[0,0.5],[1,0.5]];portConstraint=eastwest;rotatable=0;" vertex="1" parent="1">
          <mxGeometry x="654" y="300" width="80" height="30" as="geometry" />
        </mxCell>
        <mxCell id="4iORNqGe_NsJVo8OUvX1-6" value="exists" style="text;strokeColor=none;fillColor=none;align=left;verticalAlign=middle;spacingLeft=4;spacingRight=4;overflow=hidden;points=[[0,0.5],[1,0.5]];portConstraint=eastwest;rotatable=0;" vertex="1" parent="1">
          <mxGeometry x="723" y="730" width="80" height="30" as="geometry" />
        </mxCell>
        <mxCell id="4iORNqGe_NsJVo8OUvX1-7" value="exists" style="text;strokeColor=none;fillColor=none;align=left;verticalAlign=middle;spacingLeft=4;spacingRight=4;overflow=hidden;points=[[0,0.5],[1,0.5]];portConstraint=eastwest;rotatable=0;" vertex="1" parent="1">
          <mxGeometry x="793" y="994" width="80" height="30" as="geometry" />
        </mxCell>
        <mxCell id="4iORNqGe_NsJVo8OUvX1-8" value="made" style="text;strokeColor=none;fillColor=none;align=left;verticalAlign=middle;spacingLeft=4;spacingRight=4;overflow=hidden;points=[[0,0.5],[1,0.5]];portConstraint=eastwest;rotatable=0;" vertex="1" parent="1">
          <mxGeometry x="296" y="639.5" width="80" height="30" as="geometry" />
        </mxCell>
        <mxCell id="4iORNqGe_NsJVo8OUvX1-10" value="p&lt;br&gt;o&lt;br&gt;s&lt;br&gt;s&lt;br&gt;i&lt;br&gt;b&lt;br&gt;l&lt;br&gt;e" style="text;html=1;align=center;verticalAlign=middle;resizable=0;points=[];autosize=1;strokeColor=none;fillColor=none;" vertex="1" parent="1">
          <mxGeometry x="145" y="775" width="17" height="116" as="geometry" />
        </mxCell>
        <mxCell id="4iORNqGe_NsJVo8OUvX1-12" value="Promotion" style="text;strokeColor=none;fillColor=none;align=left;verticalAlign=middle;spacingLeft=4;spacingRight=4;overflow=hidden;points=[[0,0.5],[1,0.5]];portConstraint=eastwest;rotatable=0;" vertex="1" parent="1">
          <mxGeometry x="449" y="636" width="80" height="30" as="geometry" />
        </mxCell>
        <mxCell id="4iORNqGe_NsJVo8OUvX1-13" value="Ad" style="text;strokeColor=none;fillColor=none;align=left;verticalAlign=middle;spacingLeft=4;spacingRight=4;overflow=hidden;points=[[0,0.5],[1,0.5]];portConstraint=eastwest;rotatable=0;" vertex="1" parent="1">
          <mxGeometry x="453" y="662.25" width="80" height="30.75" as="geometry" />
        </mxCell>
        <mxCell id="4iORNqGe_NsJVo8OUvX1-14" value="Paid" style="text;strokeColor=none;fillColor=none;align=left;verticalAlign=middle;spacingLeft=4;spacingRight=4;overflow=hidden;points=[[0,0.5],[1,0.5]];portConstraint=eastwest;rotatable=0;" vertex="1" parent="1">
          <mxGeometry x="453" y="690" width="80" height="33" as="geometry" />
        </mxCell>
      </root>
    </mxGraphModel>
  </diagram>
</mxfile>
